<svg version="1.1" id="Layer_1" xmlns="http://www.w3.org/2000/svg" xmlns:xlink="http://www.w3.org/1999/xlink" x="0px" y="0px"
	 width="100%" viewBox="0 0 1024 1024" enable-background="new 0 0 1024 1024" xml:space="preserve">
<path fill="#000000" opacity="1.000000" stroke="none" 
	d="
M570.000000,1025.000000 
	C380.000000,1025.000000 190.500000,1025.000000 1.000000,1025.000000 
	C1.000000,683.666687 1.000000,342.333344 1.000000,1.000000 
	C342.333344,1.000000 683.666687,1.000000 1025.000000,1.000000 
	C1025.000000,342.333344 1025.000000,683.666687 1025.000000,1025.000000 
	C873.500000,1025.000000 722.000000,1025.000000 570.000000,1025.000000 
M312.049988,769.976257 
	C312.049988,769.976257 311.858459,769.966919 311.786163,769.521057 
	C311.614655,769.234436 311.361877,769.093323 310.779785,768.470459 
	C309.102448,766.987183 307.425079,765.503906 305.561035,763.435059 
	C304.709290,763.025818 303.857544,762.616638 302.391663,761.887024 
	C298.543243,757.095276 294.449890,752.475220 290.929901,747.453308 
	C288.456207,743.924194 286.763184,739.847839 284.786804,735.290710 
	C283.515991,732.551453 282.245148,729.812256 281.001831,727.018433 
	C281.001831,727.018433 280.940735,727.016235 280.914001,726.336609 
	C280.567322,725.571289 280.220642,724.806030 279.885437,723.353638 
	C279.806763,722.905945 279.728119,722.458252 279.783417,721.176453 
	C277.711304,710.212219 277.224670,699.242004 279.609528,688.251831 
	C283.162964,671.876709 287.179779,655.582642 290.086151,639.093079 
	C292.228149,626.940369 291.077972,614.914673 286.061829,603.176208 
	C281.950195,593.554443 275.636658,586.247009 267.601898,579.598206 
	C267.373993,580.380310 267.254242,580.560303 267.296234,580.686340 
	C267.499878,581.297668 267.703217,581.915771 267.985046,582.493286 
	C273.344482,593.476074 273.208801,604.666626 269.778290,616.192322 
	C265.965454,629.002441 258.049042,639.506592 251.092270,650.540161 
	C243.499832,662.581787 236.642807,674.885437 233.412720,689.553894 
	C233.040756,692.016174 232.668793,694.478455 232.089890,697.790649 
	C232.055466,699.539429 232.021042,701.288269 231.420349,703.620667 
	C231.611801,707.401611 231.803253,711.182495 232.059509,715.481506 
	C232.336868,715.671143 232.614227,715.860718 232.981247,716.912354 
	C232.742004,720.600159 232.502762,724.287903 232.158798,728.729004 
	C232.779205,730.802856 233.399612,732.876709 234.095932,735.494080 
	C234.155563,735.667053 234.215179,735.840027 234.145432,736.596313 
	C234.432465,737.060181 234.719498,737.523987 235.068832,738.763184 
	C235.196564,739.524597 235.324310,740.285950 235.375061,741.441528 
	C235.510178,741.710388 235.728210,741.844177 236.121353,742.447510 
	C236.187759,742.640259 236.254150,742.833008 236.189590,743.567810 
	C236.473770,743.987488 236.757950,744.407104 237.153381,745.462952 
	C237.232071,745.663391 237.310745,745.863770 237.261749,746.595215 
	C237.517670,747.025574 237.773590,747.455933 238.130264,748.480530 
	C238.214188,748.663086 238.298111,748.845581 238.339111,749.446228 
	C238.486679,749.721191 238.716492,749.860229 239.132797,750.461731 
	C239.205017,750.650940 239.277222,750.840149 239.218475,751.584351 
	C239.495590,752.017212 239.772705,752.450012 240.037521,752.963501 
	C240.037521,752.963501 240.118317,752.974792 240.146774,753.558289 
	C240.436890,754.023254 240.727005,754.488159 241.089172,755.482361 
	C241.154800,755.647888 241.220413,755.813416 241.190506,756.602966 
	C241.792694,757.405640 242.394882,758.208313 243.073929,759.716736 
	C243.191238,760.172241 243.308548,760.627808 243.353577,761.472656 
	C243.497894,761.732117 243.718307,761.854431 244.005493,761.966309 
	C244.005493,761.966309 244.132248,761.975098 244.205063,762.671387 
	C245.469498,764.766846 246.733948,766.862366 248.103058,769.571716 
	C248.426620,770.048157 248.750168,770.524597 248.920227,771.674194 
	C247.940796,771.844788 246.835999,772.400879 246.000412,772.129211 
	C228.252304,766.358154 216.400955,754.373413 209.849380,737.099731 
	C207.736877,731.530029 206.305298,725.701965 204.562210,719.992126 
	C203.553558,723.437805 203.669266,726.958496 202.905136,730.276489 
	C200.384033,741.223755 203.041138,751.760437 206.024612,761.954590 
	C209.545822,773.986023 215.795303,784.928955 223.282257,795.470459 
	C223.440277,795.750427 223.678177,795.866028 224.191788,796.347290 
	C224.490417,796.562866 224.789062,796.778381 225.299088,797.640076 
	C225.946350,798.590576 226.518890,799.603394 227.251968,800.482300 
	C240.434372,816.286438 255.461609,830.237305 272.650330,841.403748 
	C289.356262,852.256592 306.994476,861.675781 324.267059,871.648682 
	C324.838593,871.978699 325.886383,871.483887 325.704590,871.508179 
	C322.598785,864.733765 319.167450,858.260376 316.653473,851.448486 
	C314.612885,845.919189 317.030396,843.934326 322.935547,845.257812 
	C333.305725,847.582092 342.635315,852.275269 351.541107,857.844788 
	C369.739105,869.225220 387.437988,881.477600 406.125854,891.976318 
	C419.956390,899.746155 434.729156,906.105042 449.616211,911.661743 
	C468.949585,918.877991 488.479736,925.756470 508.961243,929.360779 
	C516.434631,930.675964 523.727661,930.359802 530.146362,926.604553 
	C548.438049,915.903198 566.276001,904.424194 584.603577,893.787109 
	C600.086975,884.800903 616.187439,876.749329 633.805786,872.953186 
	C651.597656,869.119629 669.630981,866.406677 688.446411,863.044067 
	C687.713013,865.614929 687.371582,866.811890 686.513733,868.182739 
	C686.344238,868.492554 686.174683,868.802368 685.588440,869.248047 
	C685.312134,869.419250 685.182678,869.667053 685.014465,869.976624 
	C685.014465,869.976624 684.999023,870.162170 684.572693,870.206787 
	C684.250061,870.362549 684.161499,870.604187 683.983337,871.554382 
	C676.653870,878.771484 669.324341,885.988525 661.298462,893.138489 
	C659.509338,894.342102 657.720215,895.545715 655.931091,896.749329 
	C656.182495,897.231140 656.433899,897.713013 656.685303,898.194824 
	C659.425964,897.121033 662.166626,896.047180 665.491882,894.863342 
	C665.675598,894.788757 665.859314,894.714172 666.598511,894.760376 
	C667.059998,894.504700 667.521423,894.249023 668.705627,893.753357 
	C675.475769,890.757324 682.245972,887.761230 689.722961,884.840942 
	C692.005737,883.566284 694.376892,882.426270 696.557007,880.995239 
	C710.717712,871.700073 724.836853,862.341614 739.642578,852.837646 
	C747.267334,846.139343 755.387268,839.914429 762.375183,832.607117 
	C769.120239,825.553833 775.614746,817.928101 780.570007,809.575317 
	C787.757507,797.459717 793.107849,784.390015 794.754700,770.058411 
	C795.622314,762.507568 794.483093,744.878967 791.612610,737.485779 
	C784.977661,775.254272 762.169922,800.472351 731.106934,820.024841 
	C732.043396,814.088440 733.372803,808.535522 733.721497,802.921631 
	C734.856201,784.657471 729.690796,767.751282 721.579163,751.660217 
	C714.251221,737.123840 710.152344,722.226929 715.583618,705.552612 
	C716.658203,701.919006 717.732788,698.285400 718.807312,694.651794 
	C718.470032,694.504150 718.132690,694.356506 717.795410,694.208862 
	C715.892456,697.147827 713.989502,700.086731 712.001953,703.032349 
	C712.001953,703.032349 712.008911,703.116821 711.574219,703.242310 
	C711.286011,703.420776 711.158020,703.678772 711.023926,704.027344 
	C711.023926,704.027344 711.035706,704.193787 710.642517,704.267517 
	C710.353027,704.425720 710.275391,704.655640 710.041870,705.573853 
	C708.494934,707.902100 706.871033,710.183289 705.414001,712.566467 
	C698.178467,724.401672 696.660889,737.617554 696.155884,751.084717 
	C695.870544,758.694824 696.362671,766.470459 694.955750,773.877319 
	C690.277954,798.505188 676.755859,815.470825 651.415955,821.485413 
	C639.662231,824.275208 631.025696,817.929688 627.816345,806.492737 
	C624.242615,793.757629 627.704041,781.761841 630.973633,769.685608 
	C631.386414,768.160889 631.761963,766.626099 632.427429,764.033813 
	C628.631592,766.514465 625.727234,768.285278 622.956787,770.245422 
	C611.885986,778.078064 602.593445,787.633667 599.814270,801.257324 
	C597.848938,810.891479 597.772644,820.933289 597.154480,830.811890 
	C596.763611,837.057373 593.704956,838.697021 588.057434,836.006714 
	C580.787659,832.543518 576.234192,826.790955 572.697083,819.533875 
	C572.538696,819.254944 572.300171,819.133423 571.817322,818.524170 
	C571.725891,818.322021 571.634460,818.119873 571.616272,817.525085 
	C571.477417,817.274048 571.266846,817.123047 571.008911,817.016418 
	C571.008911,817.016418 570.948120,817.016052 570.903931,816.226135 
	C570.238525,814.378540 569.285583,812.581299 568.951782,810.675598 
	C565.377136,790.265930 570.104309,771.420288 579.750610,753.465454 
	C584.407898,744.796814 589.184387,736.154724 593.184998,727.178833 
	C601.156921,709.292725 603.727295,690.500122 600.797485,671.088928 
	C600.179504,666.994568 598.783081,663.017639 597.449280,657.836792 
	C595.288330,666.189331 593.937195,673.145142 591.684998,679.795898 
	C584.541626,700.889709 570.781250,717.241394 554.266724,731.725830 
	C546.798035,738.276123 539.604431,745.329407 533.322998,753.003235 
	C521.498291,767.448914 514.687866,784.189514 513.253113,803.912476 
	C513.184021,809.610352 513.114990,815.308228 512.426758,821.427368 
	C512.049683,823.929504 511.672607,826.431702 510.979858,829.602722 
	C508.386017,836.314087 504.865265,842.189514 498.172607,845.761597 
	C492.005157,849.053345 485.819489,849.116943 479.719543,846.256653 
	C471.804840,842.545593 467.010376,835.593933 464.076752,827.851074 
	C455.793793,805.989319 457.736267,784.193665 465.826996,762.643616 
	C468.239929,756.216858 470.426086,749.704956 472.716125,743.232056 
	C472.285187,743.044312 471.854248,742.856628 471.423309,742.668884 
	C438.098022,772.790222 413.144073,806.901978 419.036621,856.556580 
	C415.459412,854.815918 412.049347,853.840698 409.495941,851.795837 
	C398.392822,842.903992 392.472443,831.029968 389.751953,817.160217 
	C388.032990,808.396667 385.274780,799.836975 382.839386,790.528259 
	C382.754456,790.320618 382.669556,790.112976 382.669434,789.549988 
	C382.536804,789.283325 382.330048,789.199646 381.443909,788.898132 
	C377.904724,783.600037 374.365540,778.301880 370.772919,772.328552 
	C369.400726,770.389526 368.028564,768.450500 366.650696,766.352051 
	C366.650696,766.352051 366.491638,766.340637 366.122192,765.771057 
	C365.206177,764.222046 364.304657,762.664185 363.371735,761.125427 
	C358.606995,753.266907 354.549286,745.037231 355.963562,735.574158 
	C357.755768,723.582275 360.719330,711.755371 362.264832,699.739868 
	C363.531433,689.892517 365.497009,679.488281 357.820831,670.933289 
	C354.550720,667.288696 350.833679,664.045105 347.319733,660.619324 
	C346.924316,660.977295 346.528900,661.335266 346.133484,661.693237 
	C346.319397,662.801331 346.629822,663.904846 346.670898,665.018250 
	C346.924377,671.888611 348.730499,679.214172 346.957397,685.528259 
	C344.199615,695.348877 339.735168,704.902344 334.675842,713.821289 
	C323.416992,733.669312 319.834351,753.712585 330.079559,775.667419 
	C330.150635,776.109497 330.221741,776.551636 330.155823,777.789307 
	C330.123718,778.864624 330.091583,779.939941 329.513458,781.095886 
	C329.329590,781.102539 329.145752,781.109131 328.719086,780.557373 
	C328.144318,780.458435 327.569580,780.359558 326.397858,779.952454 
	C325.517883,779.284485 324.637878,778.616516 323.708466,777.564636 
	C323.559357,777.304993 323.338104,777.205505 322.722839,776.676758 
	C321.771790,776.121094 320.820770,775.565369 319.783234,774.602234 
	C319.622833,774.289246 319.386597,774.213806 318.467682,774.127502 
	C318.254211,774.080505 318.040771,774.033569 317.756714,773.624634 
	C317.617249,773.342102 317.409790,773.277405 316.486237,773.088684 
	C315.872833,772.696899 315.259430,772.305115 314.686401,771.575317 
	C314.560242,771.318298 314.367401,771.250793 313.542023,771.095764 
	C313.336151,771.054138 313.130280,771.012512 312.781097,770.558105 
	C312.611572,770.282288 312.365082,770.152161 312.049988,769.976257 
M425.584625,709.207092 
	C425.265869,709.380188 425.188477,709.628540 425.038025,710.569031 
	C424.686523,711.397278 424.335022,712.225525 423.566528,713.186829 
	C423.250854,713.365173 423.172607,713.617249 423.118378,714.453918 
	C423.084625,714.635376 423.050873,714.816772 422.415527,715.352600 
	C412.087708,733.650513 403.239319,752.525146 399.825806,773.591248 
	C401.141693,772.196411 402.166809,770.615601 403.232422,769.062622 
	C411.957214,756.347961 420.721313,743.660156 429.409180,730.920410 
	C435.965271,721.306580 442.426666,711.628174 448.995911,701.978821 
	C448.995911,701.978821 448.973236,701.917236 449.486816,701.684814 
	C449.867767,701.080811 450.248688,700.476807 450.874878,699.265015 
	C451.250214,698.497925 451.625549,697.730835 452.574951,696.702026 
	C453.045868,695.808228 453.516785,694.914490 454.479523,693.802124 
	C454.653107,693.497009 454.826660,693.191895 455.407715,692.782898 
	C455.713257,692.610962 455.786102,692.368896 455.953369,691.441284 
	C456.631897,690.262756 457.310425,689.084290 458.365204,687.767944 
	C458.645599,687.597473 458.714355,687.364441 458.834991,686.559570 
	C458.884308,686.374939 458.933624,686.190247 459.579468,685.771179 
	C460.022919,684.842896 460.466400,683.914673 460.999481,682.971802 
	C460.999481,682.971802 460.984558,682.882263 461.546326,682.637268 
	C461.927643,681.754150 462.308960,680.871094 462.985626,679.438354 
	C463.316681,678.923340 463.647705,678.408325 464.381805,677.777588 
	C464.685455,677.604553 464.756531,677.363037 464.839111,676.503357 
	C464.887360,676.308777 464.935577,676.114197 465.406342,675.800354 
	C465.725677,675.622681 465.803467,675.370483 465.870667,674.480591 
	C465.913452,674.282227 465.956238,674.083862 466.415405,673.785217 
	C466.721771,673.616516 466.808105,673.370483 467.006378,672.385559 
	C468.001007,670.352173 469.200134,668.391602 469.954834,666.272705 
	C473.222168,657.099121 476.947418,647.937622 472.912872,637.235046 
	C471.951813,634.793762 470.990784,632.352417 469.972015,629.442139 
	C469.972015,629.442139 469.824677,628.993164 469.958466,628.373901 
	C469.659668,627.884094 469.360870,627.394348 469.030060,626.970825 
	C469.030060,626.970825 469.098358,626.943359 469.019775,626.203796 
	C468.380127,624.454041 467.740479,622.704346 467.015778,620.298767 
	C466.951447,619.864380 466.887085,619.429993 466.867188,618.474487 
	C466.586731,618.284546 466.306274,618.094666 465.946960,617.439575 
	C465.946960,617.439575 465.784485,616.996643 465.847229,616.484619 
	C465.576569,616.285706 465.305908,616.086792 464.994019,615.239929 
	C464.614044,614.488953 464.234070,613.738037 463.984650,612.358704 
	C463.672668,611.866638 463.360687,611.374573 462.975616,610.435364 
	C462.975616,610.435364 462.819824,610.009949 462.931366,609.259521 
	C459.662506,602.004028 456.704529,594.587585 453.050812,587.531372 
	C447.779144,577.350403 442.314240,574.489441 433.234772,576.122681 
	C418.545258,578.765198 403.857178,581.418030 389.150665,583.963318 
	C378.365326,585.830078 370.292297,581.021851 368.514954,571.158081 
	C367.906769,567.782715 369.203003,564.088379 369.459473,560.527649 
	C369.890259,554.547180 372.305817,548.445801 368.644257,542.664062 
	C366.808929,539.766052 364.875580,536.930237 363.093781,533.354614 
	C363.685730,532.171387 364.164368,530.913086 364.889923,529.818359 
	C367.526184,525.840881 367.458618,522.930054 362.779144,520.179382 
	C358.453430,517.636719 356.077362,513.451111 356.694611,507.994080 
	C357.196014,503.561310 357.867889,499.065979 357.615479,494.646881 
	C357.097107,485.572083 350.325348,481.121887 343.332886,477.213409 
	C338.308960,474.405212 337.458466,471.621155 341.081451,467.135437 
	C343.885101,463.664185 347.187317,460.564606 349.746368,456.932343 
	C358.550568,444.435699 366.837830,431.565155 375.912872,419.273254 
	C380.271240,413.369995 380.129059,408.666901 375.925903,402.971649 
	C373.797852,400.088196 372.364044,396.325439 371.762512,392.766510 
	C370.808929,387.124786 370.816895,381.320587 370.426758,375.710571 
	C365.567627,374.983185 360.875549,374.280823 354.859589,373.380249 
	C355.436157,379.195435 355.335327,385.166077 356.724609,390.767120 
	C359.824493,403.264618 357.463959,414.677063 350.467896,424.972443 
	C342.453400,436.766541 333.694489,448.055634 325.230530,459.543152 
	C320.994995,465.291718 319.949341,474.587128 326.259247,479.517761 
	C330.515594,482.843719 334.918762,486.031555 339.521057,488.848602 
	C342.919434,490.928772 344.814941,493.165161 343.268158,497.247711 
	C342.749084,498.617767 342.467407,500.076447 341.974091,501.457764 
	C339.131256,509.417389 336.205872,511.869263 346.291077,520.579041 
	C348.515930,522.500488 351.204681,524.307556 349.418121,528.463989 
	C347.806580,533.635498 349.054565,537.550476 352.973938,541.698486 
	C357.436432,546.421387 359.731049,552.522156 356.646088,559.363953 
	C355.575500,561.738159 354.970306,564.334656 354.272522,566.862671 
	C349.255768,585.038208 361.787994,594.594727 375.480164,595.753418 
	C389.318573,596.924438 403.123230,595.597046 416.778778,592.982361 
	C423.863495,591.625732 430.733246,591.799622 436.992981,595.992371 
	C436.992981,595.992371 436.959259,596.020142 437.131012,596.617737 
	C437.767273,597.372803 438.403534,598.127930 439.023895,598.969666 
	C439.023895,598.969666 439.110626,598.984863 439.179260,599.479004 
	C439.364685,599.788147 439.636536,599.962830 440.000000,600.000000 
	C440.000000,600.000000 439.997070,600.005310 440.097198,600.628784 
	C440.734222,601.415405 441.371246,602.202087 442.090210,603.521179 
	C442.158752,603.687134 442.227295,603.853149 442.245819,604.485474 
	C442.415070,604.779297 442.667969,604.946716 443.076752,605.684204 
	C443.183868,606.135132 443.290955,606.586121 443.334473,607.453186 
	C443.484161,607.730225 443.716339,607.864319 444.147858,608.474976 
	C444.237366,608.665100 444.326843,608.855286 444.365753,609.463318 
	C444.507507,609.725098 444.721100,609.898193 445.053558,610.765320 
	C446.770386,615.870117 449.027130,620.866638 450.077057,626.105103 
	C451.641052,633.908508 453.587982,641.949280 453.165527,649.769897 
	C452.338043,665.089600 443.497345,677.548035 436.141724,690.433716 
	C432.878113,696.150879 430.017639,702.098267 426.542145,708.158386 
	C426.242004,708.352600 426.102570,708.628113 426.001251,708.992310 
	C426.001251,708.992310 426.008240,709.114868 425.584625,709.207092 
M733.720886,120.630951 
	C733.601135,120.357285 733.412964,120.297142 732.492554,120.105156 
	C706.272583,105.520424 679.240601,92.849922 649.678833,86.641670 
	C633.163147,83.173218 616.924133,85.114685 602.116821,93.236671 
	C588.321472,100.803627 574.972351,109.251472 561.832031,117.925377 
	C549.878174,125.816071 537.629700,133.598557 527.036255,143.124802 
	C514.332764,154.548599 502.985626,167.535873 491.526184,180.273483 
	C477.992065,195.317108 465.094666,210.931564 451.687103,226.091507 
	C434.686981,245.313599 417.305573,264.199738 400.404175,283.507080 
	C395.184235,289.470123 388.962158,292.684082 381.414337,293.932434 
	C375.078491,294.980377 368.773621,296.420380 362.393585,296.958984 
	C339.786652,298.867371 317.151520,300.439789 294.531036,302.190674 
	C285.944916,302.855255 277.318207,303.293549 268.802277,304.491150 
	C258.216827,305.979706 247.654495,307.818359 237.215424,310.112122 
	C225.930634,312.591766 214.799515,315.770752 203.601364,318.644684 
	C203.719284,319.345245 203.837204,320.045776 203.955139,320.746338 
	C207.250305,320.477844 210.561920,319.854065 213.837631,320.005737 
	C224.761124,320.511444 235.673004,321.275604 246.587036,321.976624 
	C265.746765,323.207245 284.890289,324.902527 304.069275,325.538605 
	C314.790558,325.894165 325.563965,324.371643 336.323700,323.939362 
	C358.040710,323.066895 379.151703,318.417969 400.367676,314.230774 
	C417.678009,310.814453 434.887024,307.922363 452.936340,309.425812 
	C476.404266,311.380615 499.173431,316.333008 522.042297,321.215912 
	C522.914551,321.402161 523.861267,321.239624 524.773315,321.239624 
	C524.879089,320.750244 524.984802,320.260895 525.090576,319.771515 
	C499.446564,308.804047 477.110474,290.209839 446.964600,287.646393 
	C448.350250,285.493866 449.144409,283.981049 450.197479,282.677338 
	C453.200195,278.960022 456.556183,275.505615 459.334778,271.633179 
	C477.342133,246.537003 495.260834,221.376968 513.151489,196.197281 
	C524.332764,180.460464 534.409180,164.242706 551.439209,153.152283 
	C568.472839,142.059509 583.660217,128.147385 599.775574,115.623863 
	C612.624023,105.639084 627.219543,100.056343 643.536743,102.132362 
	C658.027710,103.976044 672.500427,106.673447 686.652954,110.281364 
	C702.991455,114.446541 718.970337,120.021950 735.476685,125.554970 
	C737.295349,126.021118 739.114014,126.487259 740.932678,126.953407 
	C741.083435,126.650665 741.234253,126.347923 741.385071,126.045181 
	C739.604919,124.809944 737.824829,123.574707 735.492859,122.101028 
	C735.298645,122.051445 735.104492,122.001854 734.793213,121.533173 
	C734.618835,121.241676 734.367676,121.140160 733.963074,120.992172 
	C733.963074,120.992172 733.715332,120.972305 733.720886,120.630951 
M638.373291,375.438965 
	C638.512512,375.690674 638.724365,375.795135 639.229919,376.367981 
	C640.178955,377.240540 641.127991,378.113068 642.323181,379.601990 
	C657.648193,393.206940 672.593445,407.274261 688.417480,420.271698 
	C701.250427,430.812378 714.946899,440.345612 728.618835,449.807739 
	C740.228149,457.842438 752.259766,465.313538 765.783691,469.892487 
	C772.612122,472.204437 779.400635,474.687622 786.345459,476.588226 
	C794.521973,478.825867 802.848267,480.516174 811.109619,482.443817 
	C811.259155,481.974731 811.408691,481.505646 811.558228,481.036591 
	C810.200195,480.168213 808.872864,479.246857 807.479553,478.439392 
	C787.560547,466.896057 767.389099,455.763306 747.797058,443.690155 
	C735.787964,436.289856 724.542969,427.617432 713.170227,419.224335 
	C695.732239,406.355133 678.773376,392.892395 663.821655,376.256012 
	C663.062622,373.809387 662.303528,371.362793 661.612732,368.546783 
	C661.479736,368.296051 661.271667,368.180328 660.883606,367.552032 
	C660.814148,367.344666 660.744690,367.137329 660.824097,366.302155 
	C660.548462,365.548340 660.272766,364.794495 659.964905,363.257904 
	C659.865601,362.484253 659.766296,361.710632 659.801697,360.308228 
	C659.536987,359.548920 659.272278,358.789642 658.985596,357.114868 
	C658.320557,352.570587 657.434265,348.045837 657.030212,343.478485 
	C655.586975,327.166351 653.713196,310.861176 653.121887,294.512909 
	C652.439209,275.637207 652.937134,256.718628 652.930786,237.818680 
	C652.924744,219.806427 652.929443,201.794174 652.929443,185.638626 
	C638.916809,240.966492 635.276978,299.088165 639.920837,357.913696 
	C639.407532,358.052765 638.894226,358.191803 638.380981,358.330841 
	C630.951477,352.528778 623.521973,346.726715 616.092468,340.924652 
	C615.594727,341.316040 615.096924,341.707428 614.599182,342.098816 
	C619.197693,349.091064 623.796143,356.083344 628.369507,363.444977 
	C628.505981,363.692261 628.714233,363.797028 629.209045,364.427185 
	C632.272278,367.972839 635.335571,371.518463 638.373291,375.438965 
M660.188477,521.603271 
	C660.462952,522.037354 660.737366,522.471436 661.118103,523.498169 
	C661.187866,523.686340 661.257690,523.874573 661.211792,524.615173 
	C661.470886,525.080750 661.730042,525.546326 662.033203,526.791870 
	C666.887451,537.178467 671.102417,547.927979 676.743591,557.867981 
	C685.537354,573.363098 699.228638,584.811707 711.897522,596.943970 
	C727.192566,611.591125 740.964661,627.351807 751.523987,645.768005 
	C760.627991,661.646057 763.722168,679.247620 766.046143,697.064819 
	C766.393799,699.730469 767.106934,702.348511 767.651062,704.988586 
	C768.881531,702.808899 768.433716,700.601562 769.175476,698.918701 
	C773.817932,688.386780 772.561951,677.258362 771.526917,666.564026 
	C769.634644,647.012085 763.104736,628.882019 751.762329,612.481873 
	C741.728882,597.974182 729.933777,585.093079 716.695496,573.683044 
	C699.458679,558.826599 681.933655,544.369019 668.874390,525.439209 
	C666.588440,522.125610 664.761902,518.495056 662.572998,514.294067 
	C661.117981,510.306915 659.662903,506.319763 658.207825,502.332611 
	C657.700073,502.471252 657.192261,502.609924 656.684448,502.748596 
	C657.497681,506.588684 658.310913,510.428802 659.065369,514.764465 
	C659.065369,514.764465 659.170044,515.252625 659.170044,515.252625 
	C659.170044,515.252625 659.656738,515.364014 659.167786,515.836853 
	C659.449951,516.845276 659.732056,517.853638 660.067383,519.599609 
	C660.147888,520.083557 660.228333,520.567566 660.188477,521.603271 
M523.392578,573.140564 
	C510.618622,556.103516 502.242828,537.460938 502.915802,514.279846 
	C501.682922,516.332336 501.098450,517.081055 500.745392,517.926392 
	C494.305267,533.345703 493.563690,549.060669 501.788208,563.712952 
	C507.947815,574.686462 516.256714,584.450806 523.575806,594.776794 
	C533.247009,608.421204 539.746399,623.014404 537.212280,640.334106 
	C536.618103,644.395264 536.276123,648.493286 535.658569,653.995789 
	C538.469482,648.939941 540.780701,645.234131 542.660217,641.320984 
	C549.366089,627.359863 548.691711,613.620361 540.679749,600.400452 
	C535.231018,591.409912 529.441650,582.625854 523.392578,573.140564 
z"/>
<path fill="#F66C15" opacity="1.000000" stroke="none" 
	d="
M571.542969,817.917664 
	C571.634460,818.119873 571.725891,818.322021 572.002197,818.984497 
	C572.330017,819.624939 572.484314,819.794861 572.649902,819.954468 
	C576.234192,826.790955 580.787659,832.543518 588.057434,836.006714 
	C593.704956,838.697021 596.763611,837.057373 597.154480,830.811890 
	C597.772644,820.933289 597.848938,810.891479 599.814270,801.257324 
	C602.593445,787.633667 611.885986,778.078064 622.956787,770.245422 
	C625.727234,768.285278 628.631592,766.514465 632.427429,764.033813 
	C631.761963,766.626099 631.386414,768.160889 630.973633,769.685608 
	C627.704041,781.761841 624.242615,793.757629 627.816345,806.492737 
	C631.025696,817.929688 639.662231,824.275208 651.415955,821.485413 
	C676.755859,815.470825 690.277954,798.505188 694.955750,773.877319 
	C696.362671,766.470459 695.870544,758.694824 696.155884,751.084717 
	C696.660889,737.617554 698.178467,724.401672 705.414001,712.566467 
	C706.871033,710.183289 708.494934,707.902100 710.355225,705.159729 
	C710.827515,704.586060 710.949951,704.402100 711.035706,704.193787 
	C711.035706,704.193787 711.023926,704.027344 711.266968,703.894775 
	C711.711548,703.574280 711.877808,703.359131 712.008911,703.116821 
	C712.008911,703.116821 712.001953,703.032349 712.375916,703.079834 
	C713.494995,704.079956 714.240112,705.032654 714.985229,705.985291 
	C710.152344,722.226929 714.251221,737.123840 721.579163,751.660217 
	C729.690796,767.751282 734.856201,784.657471 733.721497,802.921631 
	C733.372803,808.535522 732.043396,814.088440 731.106934,820.024841 
	C762.169922,800.472351 784.977661,775.254272 791.612610,737.485779 
	C794.483093,744.878967 795.622314,762.507568 794.754700,770.058411 
	C793.107849,784.390015 787.757507,797.459717 780.570007,809.575317 
	C775.614746,817.928101 769.120239,825.553833 762.375183,832.607117 
	C755.387268,839.914429 747.267334,846.139343 739.166992,852.651855 
	C740.004578,850.823303 741.372742,849.220764 742.611206,847.523438 
	C743.419739,846.415527 744.150574,845.213684 744.648804,843.948669 
	C744.745361,843.703552 743.453186,842.432190 743.057556,842.543640 
	C735.769531,844.595642 727.335632,836.883850 720.700745,845.229309 
	C719.705139,846.481628 716.473145,846.257568 715.892212,847.482788 
	C713.968018,851.541565 712.495483,853.817627 707.570251,850.520508 
	C705.646423,849.232788 700.723022,849.467957 699.368591,850.981140 
	C697.335388,853.252563 699.518066,855.845337 702.381226,857.533691 
	C703.253174,858.047913 703.073608,861.094299 702.644470,862.796692 
	C702.368958,863.890198 700.788391,865.372498 699.739746,865.416504 
	C696.793213,865.540100 693.819275,865.009094 690.142334,864.670532 
	C691.428101,862.581970 692.880981,860.505432 694.033386,858.273743 
	C695.295349,855.829956 695.232239,854.138306 691.770691,853.291565 
	C684.158752,851.429688 676.669983,849.063721 668.798523,846.808289 
	C668.163452,851.068298 665.228577,851.800476 661.124390,852.237610 
	C655.841858,852.800293 650.684998,854.699097 645.526672,856.203003 
	C643.102783,856.909607 640.801880,858.038147 638.445190,858.975525 
	C636.239746,860.813416 633.862671,862.795959 631.145264,863.546997 
	C628.503296,864.277222 625.511536,863.798828 622.674988,863.752136 
	C620.030029,863.708679 617.234619,864.049805 614.772278,863.320618 
	C607.823364,861.262695 601.002625,861.019043 593.660767,863.620789 
	C593.914917,862.219543 594.259216,861.153687 594.248230,860.091614 
	C594.240845,859.373291 593.921204,858.350281 593.396606,858.032288 
	C592.876160,857.716919 591.594849,857.818665 591.212769,858.244629 
	C587.872559,861.969299 584.777344,865.917969 581.365906,869.572876 
	C579.149658,871.947388 576.768921,875.358032 574.038452,875.824097 
	C567.664734,876.912109 562.401794,879.095581 558.480408,884.281860 
	C558.362061,884.438293 557.855896,884.301636 557.331421,884.301636 
	C556.419556,883.087891 555.455078,881.804077 554.963440,881.149658 
	C551.902954,881.149658 549.529236,881.149658 546.644653,881.149658 
	C547.998474,885.786194 544.095703,886.163025 541.085571,886.321655 
	C537.175842,886.527710 533.218506,885.569946 529.271790,885.457275 
	C527.597717,885.409546 525.471069,885.739990 524.290833,886.757629 
	C520.700317,889.853699 509.578156,892.315369 505.670105,889.809326 
	C502.735809,887.927673 500.736145,888.844482 497.895447,889.716675 
	C495.226654,890.535950 489.442322,889.748779 489.403687,889.295410 
	C488.924835,883.678955 485.430756,884.258606 481.750244,885.274475 
	C481.541412,883.109009 481.370483,881.336792 481.274658,880.343384 
	C478.611938,881.058960 476.376251,882.382324 474.531555,881.967468 
	C472.362762,881.479614 470.533325,879.483154 468.312134,877.974915 
	C467.709625,879.137512 467.479187,879.742615 467.115417,880.252380 
	C466.242645,881.475525 465.405975,883.501526 464.370483,883.622131 
	C463.237885,883.754089 461.903168,882.100708 460.647339,881.238831 
	C459.305725,880.318237 458.052460,878.861267 456.588287,878.598389 
	C450.653748,877.532776 444.575134,877.178650 438.712463,875.845947 
	C436.140015,875.261230 432.590057,873.426208 431.877472,871.341003 
	C430.288757,866.692261 430.396729,861.489990 429.400177,856.597473 
	C429.076477,855.008118 427.469116,853.680115 426.448914,852.232544 
	C425.166901,853.207092 422.680969,854.354858 422.792358,855.128906 
	C423.723816,861.602051 420.345245,862.055359 415.418182,861.080994 
	C414.168549,860.833923 412.663574,860.976379 411.479767,861.449707 
	C405.371796,863.891602 399.699249,861.094604 395.008575,858.533386 
	C388.740631,855.110901 382.660889,852.860046 375.549683,852.485718 
	C372.382965,852.318970 369.117584,850.841797 368.863159,846.419006 
	C368.694366,843.484985 367.368134,842.503845 363.812744,843.134583 
	C358.091034,844.149597 351.966644,845.389465 346.692078,840.923340 
	C345.765167,840.138550 343.489594,839.603638 342.760529,840.161255 
	C339.646057,842.542847 337.217194,840.569214 334.402008,839.681946 
	C329.717773,838.205627 324.888550,837.185547 320.111664,836.008728 
	C317.129089,835.273926 314.153534,834.465393 311.129364,833.964539 
	C309.645172,833.718689 307.317474,833.484863 306.643402,834.298828 
	C303.558807,838.023865 300.172302,835.199219 297.018646,835.049011 
	C295.171356,834.960999 293.382080,833.716248 291.560883,833.006836 
	C288.058899,831.642700 284.318939,830.692932 281.105835,828.831970 
	C276.810944,826.344482 272.940643,823.129089 268.855652,820.272522 
	C265.422333,817.871765 262.038239,815.379333 258.458923,813.214233 
	C254.268631,810.679626 249.902023,808.434265 245.587219,806.109192 
	C244.159180,805.339722 242.701614,804.276611 241.175079,804.111816 
	C238.120560,803.782166 236.596420,802.408875 235.483261,799.497681 
	C233.146713,793.387085 229.914673,792.759155 225.087677,796.993896 
	C224.789062,796.778381 224.490417,796.562866 223.998199,795.938721 
	C223.660583,795.347168 223.494263,795.187378 223.305649,795.050842 
	C215.795303,784.928955 209.545822,773.986023 206.024612,761.954590 
	C203.041138,751.760437 200.384033,741.223755 202.905136,730.276489 
	C203.669266,726.958496 203.553558,723.437805 204.562210,719.992126 
	C206.305298,725.701965 207.736877,731.530029 209.849380,737.099731 
	C216.400955,754.373413 228.252304,766.358154 246.000412,772.129211 
	C246.835999,772.400879 247.940796,771.844788 249.327957,771.433716 
	C253.852600,778.226379 261.892120,778.514404 268.218719,779.984924 
	C272.383820,780.953064 275.270721,781.219666 277.316223,785.084167 
	C277.622894,785.663513 279.849335,785.713196 280.888824,785.284058 
	C281.967651,784.838562 282.683411,783.513794 283.608704,782.519043 
	C287.284851,784.489807 290.701263,786.321350 294.425812,788.318054 
	C295.222931,787.584167 296.227814,786.658936 297.232666,785.733704 
	C297.200806,786.182495 297.168915,786.631348 297.137054,787.080200 
	C299.751953,787.897766 302.366852,788.715332 304.981750,789.532898 
	C309.069855,792.508301 315.550385,792.604614 320.599152,788.922974 
	C320.997009,786.443420 321.303192,784.535217 321.609344,782.627014 
	C323.324127,783.016235 326.492767,783.337952 326.514526,783.805847 
	C326.642181,786.554199 326.035645,789.336548 325.737732,791.635925 
	C329.109528,792.246643 333.111115,792.991882 337.120422,793.692688 
	C342.567932,794.644836 345.879395,791.598267 347.657410,788.016968 
	C352.471252,788.763245 356.360321,789.366211 361.212372,790.118469 
	C358.968292,791.719482 357.812012,792.544434 356.655731,793.369446 
	C361.143097,793.686523 365.236664,792.765015 369.364044,792.573914 
	C373.639679,792.376099 377.948120,792.886414 382.666290,793.106750 
	C382.670868,793.078979 382.826782,792.132446 382.982666,791.185852 
	C385.274780,799.836975 388.032990,808.396667 389.751953,817.160217 
	C392.472443,831.029968 398.392822,842.903992 409.495941,851.795837 
	C412.049347,853.840698 415.459412,854.815918 419.036621,856.556580 
	C413.144073,806.901978 438.098022,772.790222 471.423309,742.668884 
	C471.854248,742.856628 472.285187,743.044312 472.716125,743.232056 
	C470.426086,749.704956 468.239929,756.216858 465.826996,762.643616 
	C457.736267,784.193665 455.793793,805.989319 464.076752,827.851074 
	C467.010376,835.593933 471.804840,842.545593 479.719543,846.256653 
	C485.819489,849.116943 492.005157,849.053345 498.172607,845.761597 
	C504.865265,842.189514 508.386017,836.314087 511.293213,828.975769 
	C512.086304,825.901245 512.566101,823.453674 513.045898,821.006104 
	C513.114990,815.308228 513.184021,809.610352 513.617493,803.266968 
	C514.647644,801.117493 514.954407,799.231567 516.058411,798.194092 
	C517.995361,796.373840 520.282898,794.084839 522.669006,793.751953 
	C528.462830,792.943604 534.416992,793.368958 540.268799,792.861572 
	C544.079773,792.531128 547.804871,791.069275 551.608704,790.864929 
	C553.130676,790.783142 554.760925,792.717896 556.341858,793.734802 
	C555.082703,794.757385 553.948181,796.044800 552.523438,796.715637 
	C551.456177,797.218018 550.015137,796.926575 548.740479,796.988525 
	C549.467224,798.766296 550.277710,799.599487 551.263306,800.046814 
	C557.387573,802.826294 560.370789,800.683655 560.435242,794.026367 
	C560.493652,787.988220 560.847778,781.924866 561.608337,775.940857 
	C561.804565,774.397095 564.018555,773.109741 565.305664,771.704590 
	C566.060730,773.320312 567.557556,774.992615 567.439270,776.541626 
	C566.989197,782.435730 565.874023,788.275452 565.275269,794.162720 
	C564.435669,802.418274 565.067749,810.390381 570.948120,817.016052 
	C570.948120,817.016052 571.008911,817.016418 571.080444,817.191162 
	C571.269104,817.559265 571.399414,817.743164 571.542969,817.917664 
M544.944397,802.670898 
	C544.073425,803.707092 543.202515,804.743286 542.331604,805.779480 
	C543.331848,806.312805 544.332031,806.846191 545.332214,807.379578 
	C545.405884,805.919617 545.479614,804.459717 544.944397,802.670898 
M537.700562,799.210388 
	C538.162720,799.961914 538.624939,800.713501 539.087097,801.465027 
	C539.618530,800.572327 540.149963,799.679688 540.681396,798.786987 
	C539.803162,798.755310 538.924927,798.723633 537.700562,799.210388 
M532.101440,799.196106 
	C531.801880,798.966003 531.506958,798.728882 531.192017,798.522095 
	C531.171997,798.508911 530.996826,798.732056 530.893860,798.845276 
	C531.210876,799.054199 531.527893,799.263123 532.101440,799.196106 
z"/>
<path fill="#F58523" opacity="1.000000" stroke="none" 
	d="
M735.105408,124.985016 
	C718.970337,120.021950 702.991455,114.446541 686.652954,110.281364 
	C672.500427,106.673447 658.027710,103.976044 643.536743,102.132362 
	C627.219543,100.056343 612.624023,105.639084 599.775574,115.623863 
	C583.660217,128.147385 568.472839,142.059509 551.439209,153.152283 
	C534.409180,164.242706 524.332764,180.460464 513.151489,196.197281 
	C495.260834,221.376968 477.342133,246.537003 459.334778,271.633179 
	C456.556183,275.505615 453.200195,278.960022 450.197479,282.677338 
	C449.144409,283.981049 448.350250,285.493866 446.964600,287.646393 
	C477.110474,290.209839 499.446564,308.804047 525.090576,319.771515 
	C524.984802,320.260895 524.879089,320.750244 524.773315,321.239624 
	C523.861267,321.239624 522.914551,321.402161 522.042297,321.215912 
	C499.173431,316.333008 476.404266,311.380615 452.936340,309.425812 
	C434.887024,307.922363 417.678009,310.814453 400.367676,314.230774 
	C379.151703,318.417969 358.040710,323.066895 336.323700,323.939362 
	C325.563965,324.371643 314.790558,325.894165 304.069275,325.538605 
	C284.890289,324.902527 265.746765,323.207245 246.587036,321.976624 
	C235.673004,321.275604 224.761124,320.511444 213.837631,320.005737 
	C210.561920,319.854065 207.250305,320.477844 203.955139,320.746338 
	C203.837204,320.045776 203.719284,319.345245 203.601364,318.644684 
	C214.799515,315.770752 225.930634,312.591766 237.215424,310.112122 
	C247.654495,307.818359 258.216827,305.979706 268.802277,304.491150 
	C277.318207,303.293549 285.944916,302.855255 294.531036,302.190674 
	C317.151520,300.439789 339.786652,298.867371 362.393585,296.958984 
	C368.773621,296.420380 375.078491,294.980377 381.414337,293.932434 
	C388.962158,292.684082 395.184235,289.470123 400.404175,283.507080 
	C417.305573,264.199738 434.686981,245.313599 451.687103,226.091507 
	C465.094666,210.931564 477.992065,195.317108 491.526184,180.273483 
	C502.985626,167.535873 514.332764,154.548599 527.036255,143.124802 
	C537.629700,133.598557 549.878174,125.816071 561.832031,117.925377 
	C574.972351,109.251472 588.321472,100.803627 602.116821,93.236671 
	C616.924133,85.114685 633.163147,83.173218 649.678833,86.641670 
	C679.240601,92.849922 706.272583,105.520424 732.883179,120.396767 
	C733.388733,120.833031 733.535950,120.927673 733.715332,120.972305 
	C733.715332,120.972305 733.963074,120.992172 734.117493,121.262253 
	C734.453613,121.719597 734.666443,121.859573 734.910400,121.952271 
	C735.104492,122.001854 735.298645,122.051445 735.725769,122.503380 
	C735.674255,123.598831 735.389832,124.291924 735.105408,124.985016 
z"/>
<path fill="#F36312" opacity="1.000000" stroke="none" 
	d="
M225.193375,797.317017 
	C229.914673,792.759155 233.146713,793.387085 235.483261,799.497681 
	C236.596420,802.408875 238.120560,803.782166 241.175079,804.111816 
	C242.701614,804.276611 244.159180,805.339722 245.587219,806.109192 
	C249.902023,808.434265 254.268631,810.679626 258.458923,813.214233 
	C262.038239,815.379333 265.422333,817.871765 268.855652,820.272522 
	C272.940643,823.129089 276.810944,826.344482 281.105835,828.831970 
	C284.318939,830.692932 288.058899,831.642700 291.560883,833.006836 
	C293.382080,833.716248 295.171356,834.960999 297.018646,835.049011 
	C300.172302,835.199219 303.558807,838.023865 306.643402,834.298828 
	C307.317474,833.484863 309.645172,833.718689 311.129364,833.964539 
	C314.153534,834.465393 317.129089,835.273926 320.111664,836.008728 
	C324.888550,837.185547 329.717773,838.205627 334.402008,839.681946 
	C337.217194,840.569214 339.646057,842.542847 342.760529,840.161255 
	C343.489594,839.603638 345.765167,840.138550 346.692078,840.923340 
	C351.966644,845.389465 358.091034,844.149597 363.812744,843.134583 
	C367.368134,842.503845 368.694366,843.484985 368.863159,846.419006 
	C369.117584,850.841797 372.382965,852.318970 375.549683,852.485718 
	C382.660889,852.860046 388.740631,855.110901 395.008575,858.533386 
	C399.699249,861.094604 405.371796,863.891602 411.479767,861.449707 
	C412.663574,860.976379 414.168549,860.833923 415.418182,861.080994 
	C420.345245,862.055359 423.723816,861.602051 422.792358,855.128906 
	C422.680969,854.354858 425.166901,853.207092 426.448914,852.232544 
	C427.469116,853.680115 429.076477,855.008118 429.400177,856.597473 
	C430.396729,861.489990 430.288757,866.692261 431.877472,871.341003 
	C432.590057,873.426208 436.140015,875.261230 438.712463,875.845947 
	C444.575134,877.178650 450.653748,877.532776 456.588287,878.598389 
	C458.052460,878.861267 459.305725,880.318237 460.647339,881.238831 
	C461.903168,882.100708 463.237885,883.754089 464.370483,883.622131 
	C465.405975,883.501526 466.242645,881.475525 467.115417,880.252380 
	C467.479187,879.742615 467.709625,879.137512 468.312134,877.974915 
	C470.533325,879.483154 472.362762,881.479614 474.531555,881.967468 
	C476.376251,882.382324 478.611938,881.058960 481.274658,880.343384 
	C481.370483,881.336792 481.541412,883.109009 481.750244,885.274475 
	C485.430756,884.258606 488.924835,883.678955 489.403687,889.295410 
	C489.442322,889.748779 495.226654,890.535950 497.895447,889.716675 
	C500.736145,888.844482 502.735809,887.927673 505.670105,889.809326 
	C509.578156,892.315369 520.700317,889.853699 524.290833,886.757629 
	C525.471069,885.739990 527.597717,885.409546 529.271790,885.457275 
	C533.218506,885.569946 537.175842,886.527710 541.085571,886.321655 
	C544.095703,886.163025 547.998474,885.786194 546.644653,881.149658 
	C549.529236,881.149658 551.902954,881.149658 554.963440,881.149658 
	C555.455078,881.804077 556.419556,883.087891 557.331421,884.301636 
	C557.855896,884.301636 558.362061,884.438293 558.480408,884.281860 
	C562.401794,879.095581 567.664734,876.912109 574.038452,875.824097 
	C576.768921,875.358032 579.149658,871.947388 581.365906,869.572876 
	C584.777344,865.917969 587.872559,861.969299 591.212769,858.244629 
	C591.594849,857.818665 592.876160,857.716919 593.396606,858.032288 
	C593.921204,858.350281 594.240845,859.373291 594.248230,860.091614 
	C594.259216,861.153687 593.914917,862.219543 593.660767,863.620789 
	C601.002625,861.019043 607.823364,861.262695 614.772278,863.320618 
	C617.234619,864.049805 620.030029,863.708679 622.674988,863.752136 
	C625.511536,863.798828 628.503296,864.277222 631.145264,863.546997 
	C633.862671,862.795959 636.239746,860.813416 638.445190,858.975525 
	C640.801880,858.038147 643.102783,856.909607 645.526672,856.203003 
	C650.684998,854.699097 655.841858,852.800293 661.124390,852.237610 
	C665.228577,851.800476 668.163452,851.068298 668.798523,846.808289 
	C676.669983,849.063721 684.158752,851.429688 691.770691,853.291565 
	C695.232239,854.138306 695.295349,855.829956 694.033386,858.273743 
	C692.880981,860.505432 691.428101,862.581970 690.142334,864.670532 
	C693.819275,865.009094 696.793213,865.540100 699.739746,865.416504 
	C700.788391,865.372498 702.368958,863.890198 702.644470,862.796692 
	C703.073608,861.094299 703.253174,858.047913 702.381226,857.533691 
	C699.518066,855.845337 697.335388,853.252563 699.368591,850.981140 
	C700.723022,849.467957 705.646423,849.232788 707.570251,850.520508 
	C712.495483,853.817627 713.968018,851.541565 715.892212,847.482788 
	C716.473145,846.257568 719.705139,846.481628 720.700745,845.229309 
	C727.335632,836.883850 735.769531,844.595642 743.057556,842.543640 
	C743.453186,842.432190 744.745361,843.703552 744.648804,843.948669 
	C744.150574,845.213684 743.419739,846.415527 742.611206,847.523438 
	C741.372742,849.220764 740.004578,850.823303 738.830566,852.734985 
	C724.836853,862.341614 710.717712,871.700073 696.557007,880.995239 
	C694.376892,882.426270 692.005737,883.566284 689.311279,884.479492 
	C688.054016,883.558960 687.235168,882.952881 686.356567,882.451599 
	C685.006470,881.681274 683.615295,880.982910 682.241577,880.254028 
	C683.486145,878.552063 684.590698,876.713074 686.050354,875.221680 
	C686.565796,874.695129 688.056335,875.265015 688.910400,874.894043 
	C690.148254,874.356506 691.969849,873.561401 692.148193,872.613708 
	C692.346436,871.560303 691.193604,869.986694 690.224060,869.066040 
	C689.488220,868.367371 688.117981,868.336792 687.030090,868.008911 
	C687.371582,866.811890 687.713013,865.614929 688.446411,863.044067 
	C669.630981,866.406677 651.597656,869.119629 633.805786,872.953186 
	C616.187439,876.749329 600.086975,884.800903 584.603577,893.787109 
	C566.276001,904.424194 548.438049,915.903198 530.146362,926.604553 
	C523.727661,930.359802 516.434631,930.675964 508.961243,929.360779 
	C488.479736,925.756470 468.949585,918.877991 449.616211,911.661743 
	C434.729156,906.105042 419.956390,899.746155 406.125854,891.976318 
	C387.437988,881.477600 369.739105,869.225220 351.541107,857.844788 
	C342.635315,852.275269 333.305725,847.582092 322.935547,845.257812 
	C317.030396,843.934326 314.612885,845.919189 316.653473,851.448486 
	C319.167450,858.260376 322.598785,864.733765 325.704590,871.508179 
	C325.886383,871.483887 324.838593,871.978699 324.267059,871.648682 
	C306.994476,861.675781 289.356262,852.256592 272.650330,841.403748 
	C255.461609,830.237305 240.434372,816.286438 227.251968,800.482300 
	C226.518890,799.603394 225.946350,798.590576 225.193375,797.317017 
M422.117828,871.652161 
	C419.939911,869.067871 417.593018,869.125366 415.185913,870.124695 
	C415.148651,870.832886 415.111389,871.541016 415.074127,872.249207 
	C417.360992,872.249207 419.647827,872.249207 422.117828,871.652161 
z"/>
<path fill="#F97318" opacity="1.000000" stroke="none" 
	d="
M382.911011,790.857056 
	C382.826782,792.132446 382.670868,793.078979 382.666290,793.106750 
	C377.948120,792.886414 373.639679,792.376099 369.364044,792.573914 
	C365.236664,792.765015 361.143097,793.686523 356.655731,793.369446 
	C357.812012,792.544434 358.968292,791.719482 361.212372,790.118469 
	C356.360321,789.366211 352.471252,788.763245 347.657410,788.016968 
	C345.879395,791.598267 342.567932,794.644836 337.120422,793.692688 
	C333.111115,792.991882 329.109528,792.246643 325.737732,791.635925 
	C326.035645,789.336548 326.642181,786.554199 326.514526,783.805847 
	C326.492767,783.337952 323.324127,783.016235 321.609344,782.627014 
	C321.303192,784.535217 320.997009,786.443420 320.599152,788.922974 
	C315.550385,792.604614 309.069855,792.508301 304.981750,789.532898 
	C302.366852,788.715332 299.751953,787.897766 297.137054,787.080200 
	C297.168915,786.631348 297.200806,786.182495 297.232666,785.733704 
	C296.227814,786.658936 295.222931,787.584167 294.425812,788.318054 
	C290.701263,786.321350 287.284851,784.489807 283.608704,782.519043 
	C282.683411,783.513794 281.967651,784.838562 280.888824,785.284058 
	C279.849335,785.713196 277.622894,785.663513 277.316223,785.084167 
	C275.270721,781.219666 272.383820,780.953064 268.218719,779.984924 
	C261.892120,778.514404 253.852600,778.226379 249.404694,771.097168 
	C248.750168,770.524597 248.426620,770.048157 248.257919,768.994263 
	C249.462692,766.607849 250.512619,764.798828 251.562561,762.989868 
	C249.407562,762.620056 247.254181,762.240234 245.095749,761.891724 
	C244.787125,761.841858 244.454025,761.943542 244.132248,761.975098 
	C244.132248,761.975098 244.005493,761.966309 243.933411,761.761475 
	C243.743225,761.374023 243.598053,761.216187 243.425842,761.083313 
	C243.308548,760.627808 243.191238,760.172241 243.020569,759.047852 
	C242.406830,757.578979 241.846436,756.778931 241.286026,755.978882 
	C241.220413,755.813416 241.154800,755.647888 241.006470,754.944214 
	C240.655273,753.928955 240.386795,753.451843 240.118317,752.974792 
	C240.118317,752.974792 240.037521,752.963501 240.011383,752.673462 
	C239.773300,751.932129 239.561371,751.480713 239.349426,751.029358 
	C239.277222,750.840149 239.205017,750.650940 239.008453,749.998169 
	C238.758667,749.324280 238.591293,749.155457 238.382034,749.028137 
	C238.298111,748.845581 238.214188,748.663086 238.058594,747.937866 
	C237.787750,746.951477 237.588593,746.507812 237.389435,746.064087 
	C237.310745,745.863770 237.232071,745.663391 237.066208,744.900269 
	C236.759521,743.900269 236.540024,743.462952 236.320526,743.025696 
	C236.254150,742.833008 236.187759,742.640259 236.014832,741.989136 
	C235.800125,741.328186 235.648041,741.167053 235.452042,741.047363 
	C235.324310,740.285950 235.196564,739.524597 235.004181,738.109985 
	C234.717941,736.975525 234.496368,736.494202 234.274780,736.012939 
	C234.215179,735.840027 234.155563,735.667053 234.069824,734.817566 
	C233.450317,732.085938 232.856934,730.030823 232.263550,727.975708 
	C232.502762,724.287903 232.742004,720.600159 233.158142,716.132202 
	C233.557739,712.890991 233.510269,710.365784 234.075409,707.986084 
	C234.701904,705.348083 235.175247,701.981689 236.993439,700.476746 
	C239.900360,698.070740 243.743240,696.366089 247.446106,695.599060 
	C248.638809,695.352051 250.818878,698.865479 252.226059,700.882751 
	C254.670227,704.386597 256.864410,708.064758 259.163422,711.669861 
	C259.665558,711.589844 260.167694,711.509888 260.669830,711.429871 
	C260.669830,709.120728 260.601959,706.808655 260.703888,704.504028 
	C260.743683,703.603516 261.064484,702.016113 261.431824,701.963745 
	C262.439636,701.819824 264.280090,702.052979 264.485748,702.614746 
	C266.034332,706.844360 269.595367,708.154907 273.279816,709.706482 
	C274.277679,710.126648 274.948151,712.543030 274.892303,714.009827 
	C274.746246,717.846130 276.370056,720.350647 279.649445,722.010559 
	C279.728119,722.458252 279.806763,722.905945 279.737640,723.937744 
	C280.040161,725.353271 280.490448,726.184753 280.940735,727.016235 
	C280.940735,727.016235 281.001831,727.018433 280.993652,727.447632 
	C282.230865,730.589844 283.476227,733.302856 284.721588,736.015869 
	C286.763184,739.847839 288.456207,743.924194 290.929901,747.453308 
	C294.449890,752.475220 298.543243,757.095276 302.819244,762.316345 
	C304.080475,763.170654 304.914093,763.595642 305.747742,764.020630 
	C307.425079,765.503906 309.102448,766.987183 311.022400,768.946777 
	C311.438751,769.630554 311.636566,769.811890 311.858459,769.966919 
	C311.858459,769.966919 312.049988,769.976257 312.173828,770.224487 
	C312.484497,770.666626 312.693420,770.832642 312.924438,770.970886 
	C313.130280,771.012512 313.336151,771.054138 313.896179,771.342041 
	C314.358887,771.725159 314.490753,771.833496 314.646027,771.913391 
	C315.259430,772.305115 315.872833,772.696899 316.908447,773.371826 
	C317.478333,773.792358 317.643890,773.902954 317.827332,773.986694 
	C318.040771,774.033569 318.254211,774.080505 318.885895,774.378174 
	C319.472534,774.785645 319.661072,774.912598 319.869720,775.009705 
	C320.820770,775.565369 321.771790,776.121094 322.985474,777.101440 
	C323.398041,777.691040 323.567993,777.831848 323.757904,777.948547 
	C324.637878,778.616516 325.517883,779.284485 326.776611,780.319092 
	C327.757507,780.829041 328.359711,780.972351 328.961884,781.115723 
	C329.145752,781.109131 329.329590,781.102539 330.065430,780.928406 
	C330.509186,779.505188 330.401031,778.249451 330.292847,776.993713 
	C330.221741,776.551636 330.150635,776.109497 330.385132,775.172852 
	C330.631409,773.128235 330.838806,771.504944 330.439453,770.048035 
	C330.020691,768.520386 328.519287,767.200989 328.373383,765.704590 
	C328.024109,762.122131 327.762756,758.427429 328.269775,754.893372 
	C328.810547,751.124146 330.494141,747.864319 335.475067,748.513428 
	C336.496124,748.646484 337.974426,747.942322 338.704956,747.137024 
	C340.979950,744.629333 342.722717,741.582458 345.212189,739.346069 
	C346.831238,737.891846 349.391998,737.485901 351.530853,736.610229 
	C352.353180,738.803650 353.983337,741.044739 353.856995,743.182129 
	C353.330994,752.079773 357.978607,758.600281 363.113586,764.942566 
	C363.787323,765.774719 365.343964,765.892151 366.491638,766.340637 
	C366.491638,766.340637 366.650696,766.352051 366.580566,766.813965 
	C366.595581,770.205078 367.160828,772.772461 370.826385,773.003784 
	C374.365540,778.301880 377.904724,783.600037 381.817871,789.214783 
	C382.298767,789.681274 382.429718,789.805908 382.584656,789.905334 
	C382.669556,790.112976 382.754456,790.320618 382.911011,790.857056 
z"/>
<path fill="#F67218" opacity="1.000000" stroke="none" 
	d="
M570.926025,816.621094 
	C565.067749,810.390381 564.435669,802.418274 565.275269,794.162720 
	C565.874023,788.275452 566.989197,782.435730 567.439270,776.541626 
	C567.557556,774.992615 566.060730,773.320312 565.305664,771.704590 
	C564.018555,773.109741 561.804565,774.397095 561.608337,775.940857 
	C560.847778,781.924866 560.493652,787.988220 560.435242,794.026367 
	C560.370789,800.683655 557.387573,802.826294 551.263306,800.046814 
	C550.277710,799.599487 549.467224,798.766296 548.740479,796.988525 
	C550.015137,796.926575 551.456177,797.218018 552.523438,796.715637 
	C553.948181,796.044800 555.082703,794.757385 556.341858,793.734802 
	C554.760925,792.717896 553.130676,790.783142 551.608704,790.864929 
	C547.804871,791.069275 544.079773,792.531128 540.268799,792.861572 
	C534.416992,793.368958 528.462830,792.943604 522.669006,793.751953 
	C520.282898,794.084839 517.995361,796.373840 516.058411,798.194092 
	C514.954407,799.231567 514.647644,801.117493 513.719604,802.808716 
	C514.687866,784.189514 521.498291,767.448914 533.322998,753.003235 
	C539.604431,745.329407 546.798035,738.276123 554.266724,731.725830 
	C570.781250,717.241394 584.541626,700.889709 591.684998,679.795898 
	C593.937195,673.145142 595.288330,666.189331 597.449280,657.836792 
	C598.783081,663.017639 600.179504,666.994568 600.797485,671.088928 
	C603.727295,690.500122 601.156921,709.292725 593.184998,727.178833 
	C589.184387,736.154724 584.407898,744.796814 579.750610,753.465454 
	C570.104309,771.420288 565.377136,790.265930 568.951782,810.675598 
	C569.285583,812.581299 570.238525,814.378540 570.926025,816.621094 
z"/>
<path fill="#F77A1C" opacity="1.000000" stroke="none" 
	d="
M279.716431,721.593506 
	C276.370056,720.350647 274.746246,717.846130 274.892303,714.009827 
	C274.948151,712.543030 274.277679,710.126648 273.279816,709.706482 
	C269.595367,708.154907 266.034332,706.844360 264.485748,702.614746 
	C264.280090,702.052979 262.439636,701.819824 261.431824,701.963745 
	C261.064484,702.016113 260.743683,703.603516 260.703888,704.504028 
	C260.601959,706.808655 260.669830,709.120728 260.669830,711.429871 
	C260.167694,711.509888 259.665558,711.589844 259.163422,711.669861 
	C256.864410,708.064758 254.670227,704.386597 252.226059,700.882751 
	C250.818878,698.865479 248.638809,695.352051 247.446106,695.599060 
	C243.743240,696.366089 239.900360,698.070740 236.993439,700.476746 
	C235.175247,701.981689 234.701904,705.348083 234.075409,707.986084 
	C233.510269,710.365784 233.557739,712.890991 233.113312,715.701172 
	C232.614227,715.860718 232.336868,715.671143 232.029724,714.765503 
	C231.995514,710.378723 231.991058,706.707886 231.986633,703.037048 
	C232.021042,701.288269 232.055466,699.539429 232.491058,697.176880 
	C233.260406,694.072510 233.628571,691.581787 233.996735,689.091125 
	C236.642807,674.885437 243.499832,662.581787 251.092270,650.540161 
	C258.049042,639.506592 265.965454,629.002441 269.778290,616.192322 
	C273.208801,604.666626 273.344482,593.476074 267.985046,582.493286 
	C267.703217,581.915771 267.499878,581.297668 267.296234,580.686340 
	C267.254242,580.560303 267.373993,580.380310 267.601898,579.598206 
	C275.636658,586.247009 281.950195,593.554443 286.061829,603.176208 
	C291.077972,614.914673 292.228149,626.940369 290.086151,639.093079 
	C287.179779,655.582642 283.162964,671.876709 279.609528,688.251831 
	C277.224670,699.242004 277.711304,710.212219 279.716431,721.593506 
z"/>
<path fill="#F0731A" opacity="1.000000" stroke="none" 
	d="
M662.723145,515.010925 
	C664.761902,518.495056 666.588440,522.125610 668.874390,525.439209 
	C681.933655,544.369019 699.458679,558.826599 716.695496,573.683044 
	C729.933777,585.093079 741.728882,597.974182 751.762329,612.481873 
	C763.104736,628.882019 769.634644,647.012085 771.526917,666.564026 
	C772.561951,677.258362 773.817932,688.386780 769.175476,698.918701 
	C768.433716,700.601562 768.881531,702.808899 767.651062,704.988586 
	C767.106934,702.348511 766.393799,699.730469 766.046143,697.064819 
	C763.722168,679.247620 760.627991,661.646057 751.523987,645.768005 
	C740.964661,627.351807 727.192566,611.591125 711.897522,596.943970 
	C699.228638,584.811707 685.537354,573.363098 676.743591,557.867981 
	C671.102417,547.927979 666.887451,537.178467 661.978516,526.142944 
	C661.725037,525.016968 661.526245,524.539856 661.327454,524.062744 
	C661.257690,523.874573 661.187866,523.686340 661.026428,522.953735 
	C660.726135,521.956726 660.517456,521.504089 660.308777,521.051514 
	C660.228333,520.567566 660.147888,520.083557 660.030396,518.791809 
	C659.881165,517.110657 659.768921,516.237366 659.656738,515.364014 
	C659.656738,515.364014 659.170044,515.252625 659.170044,515.252625 
	C659.170044,515.252625 659.065369,514.764465 659.459229,514.566650 
	C660.809753,514.582886 661.766479,514.796875 662.723145,515.010925 
z"/>
<path fill="#F18223" opacity="1.000000" stroke="none" 
	d="
M350.017517,527.996277 
	C351.204681,524.307556 348.515930,522.500488 346.291077,520.579041 
	C336.205872,511.869263 339.131256,509.417389 341.974091,501.457764 
	C342.467407,500.076447 342.749084,498.617767 343.268158,497.247711 
	C344.814941,493.165161 342.919434,490.928772 339.521057,488.848602 
	C334.918762,486.031555 330.515594,482.843719 326.259247,479.517761 
	C319.949341,474.587128 320.994995,465.291718 325.230530,459.543152 
	C333.694489,448.055634 342.453400,436.766541 350.467896,424.972443 
	C357.463959,414.677063 359.824493,403.264618 356.724609,390.767120 
	C355.335327,385.166077 355.436157,379.195435 354.859589,373.380249 
	C360.875549,374.280823 365.567627,374.983185 370.426758,375.710571 
	C370.816895,381.320587 370.808929,387.124786 371.762512,392.766510 
	C372.364044,396.325439 373.797852,400.088196 375.925903,402.971649 
	C380.129059,408.666901 380.271240,413.369995 375.912872,419.273254 
	C366.837830,431.565155 358.550568,444.435699 349.746368,456.932343 
	C347.187317,460.564606 343.885101,463.664185 341.081451,467.135437 
	C337.458466,471.621155 338.308960,474.405212 343.332886,477.213409 
	C350.325348,481.121887 357.097107,485.572083 357.615479,494.646881 
	C357.867889,499.065979 357.196014,503.561310 356.694611,507.994080 
	C356.077362,513.451111 358.453430,517.636719 362.779144,520.179382 
	C367.458618,522.930054 367.526184,525.840881 364.889923,529.818359 
	C364.164368,530.913086 363.685730,532.171387 362.908020,533.990356 
	C361.495667,534.518372 359.311493,534.650635 359.213623,534.260132 
	C358.852997,532.820923 359.156647,531.206726 359.261292,529.661804 
	C359.359833,528.206360 359.522400,526.755188 359.656799,525.302185 
	C357.918121,525.146790 356.043335,524.517273 354.478119,524.966309 
	C352.836609,525.437378 351.491943,526.942932 350.017517,527.996277 
z"/>
<path fill="#EF7C20" opacity="1.000000" stroke="none" 
	d="
M663.899170,377.014648 
	C678.773376,392.892395 695.732239,406.355133 713.170227,419.224335 
	C724.542969,427.617432 735.787964,436.289856 747.797058,443.690155 
	C767.389099,455.763306 787.560547,466.896057 807.479553,478.439392 
	C808.872864,479.246857 810.200195,480.168213 811.558228,481.036591 
	C811.408691,481.505646 811.259155,481.974731 811.109619,482.443817 
	C802.848267,480.516174 794.521973,478.825867 786.345459,476.588226 
	C779.400635,474.687622 772.612122,472.204437 765.783691,469.892487 
	C752.259766,465.313538 740.228149,457.842438 728.618835,449.807739 
	C714.946899,440.345612 701.250427,430.812378 688.417480,420.271698 
	C672.593445,407.274261 657.648193,393.206940 642.510986,379.166626 
	C645.117737,376.501373 647.183228,373.375519 650.037598,372.249451 
	C654.426758,370.517853 659.222900,370.441589 661.702637,376.105804 
	C661.931641,376.629028 663.143616,376.721924 663.899170,377.014648 
z"/>
<path fill="#F18223" opacity="1.000000" stroke="none" 
	d="
M663.860413,376.635315 
	C663.143616,376.721924 661.931641,376.629028 661.702637,376.105804 
	C659.222900,370.441589 654.426758,370.517853 650.037598,372.249451 
	C647.183228,373.375519 645.117737,376.501373 642.387939,378.858429 
	C641.127991,378.113068 640.178955,377.240540 639.038208,375.929077 
	C638.721802,375.322418 638.572571,375.180389 638.398804,375.064087 
	C635.335571,371.518463 632.272278,367.972839 629.021118,363.964233 
	C628.710144,363.335571 628.563965,363.193665 628.394653,363.075592 
	C623.796143,356.083344 619.197693,349.091064 614.599182,342.098816 
	C615.096924,341.707428 615.594727,341.316040 616.092468,340.924652 
	C623.521973,346.726715 630.951477,352.528778 638.380981,358.330841 
	C638.894226,358.191803 639.407532,358.052765 639.920837,357.913696 
	C635.276978,299.088165 638.916809,240.966492 652.929443,185.638626 
	C652.929443,201.794174 652.924744,219.806427 652.930786,237.818680 
	C652.937134,256.718628 652.439209,275.637207 653.121887,294.512909 
	C653.713196,310.861176 655.586975,327.166351 657.030212,343.478485 
	C657.434265,348.045837 658.320557,352.570587 659.001038,357.875488 
	C659.233337,359.403046 659.450195,360.170013 659.666992,360.936981 
	C659.766296,361.710632 659.865601,362.484253 659.988220,363.951172 
	C660.232788,365.406250 660.453979,366.168121 660.675232,366.929962 
	C660.744690,367.137329 660.814148,367.344666 661.007019,368.010468 
	C661.241150,368.643280 661.379150,368.792389 661.544434,368.916199 
	C662.303528,371.362793 663.062622,373.809387 663.860413,376.635315 
z"/>
<path fill="#F77A1C" opacity="1.000000" stroke="none" 
	d="
M472.803925,638.005432 
	C476.947418,647.937622 473.222168,657.099121 469.954834,666.272705 
	C469.200134,668.391602 468.001007,670.352173 466.696106,672.828613 
	C466.207672,673.445251 466.078735,673.649841 465.999054,673.885498 
	C465.956238,674.083862 465.913452,674.282227 465.612518,674.880981 
	C465.181305,675.465393 465.057770,675.678162 464.983826,675.919678 
	C464.935577,676.114197 464.887360,676.308777 464.579407,676.890015 
	C464.155090,677.454041 464.041412,677.659546 463.978699,677.893250 
	C463.647705,678.408325 463.316681,678.923340 462.568237,679.844971 
	C461.762085,681.128418 461.373322,682.005371 460.984558,682.882263 
	C460.984558,682.882263 460.999481,682.971802 460.661774,682.842407 
	C458.830902,681.752014 457.337738,680.791016 455.844604,679.830017 
	C455.233887,681.566284 454.572540,683.287231 454.040405,685.047302 
	C453.859070,685.647095 454.002808,686.345154 453.799683,687.062866 
	C453.391449,687.423523 453.181519,687.719727 452.971619,688.015930 
	C453.097076,688.037170 453.303467,688.115540 453.335114,688.070679 
	C453.576538,687.728149 453.783844,687.361511 454.357269,686.926147 
	C456.136169,686.568359 457.559540,686.286987 458.982941,686.005554 
	C458.933624,686.190247 458.884308,686.374939 458.569153,686.924988 
	C458.145111,687.468201 458.040314,687.673279 457.988953,687.905762 
	C457.310425,689.084290 456.631897,690.262756 455.652069,691.859985 
	C455.184235,692.452698 455.067413,692.655396 455.000244,692.886780 
	C454.826660,693.191895 454.653107,693.497009 453.933533,694.025085 
	C452.925354,695.153259 452.463135,696.058533 452.000916,696.963745 
	C451.625549,697.730835 451.250214,698.497925 450.577606,699.313232 
	C448.805328,697.128784 447.162689,696.549377 445.113312,698.730957 
	C443.990143,699.926636 442.747192,701.009277 441.569183,702.154175 
	C436.100433,707.469421 430.401764,712.450989 423.017090,714.998230 
	C423.050873,714.816772 423.084625,714.635376 423.365784,714.075623 
	C423.785522,713.510986 423.908966,713.296448 423.983521,713.053772 
	C424.335022,712.225525 424.686523,711.397278 425.336090,710.147705 
	C425.806488,709.551636 425.931183,709.347839 426.008240,709.114868 
	C426.008240,709.114868 426.001251,708.992310 426.235657,708.842896 
	C426.686768,708.475281 426.854767,708.224487 426.974121,707.941162 
	C430.017639,702.098267 432.878113,696.150879 436.141724,690.433716 
	C443.497345,677.548035 452.338043,665.089600 453.165527,649.769897 
	C453.587982,641.949280 451.641052,633.908508 450.077057,626.105103 
	C449.027130,620.866638 446.770386,615.870117 444.959320,610.201294 
	C444.750549,609.413391 444.600952,609.216125 444.416321,609.045410 
	C444.326843,608.855286 444.237366,608.665100 444.008881,608.010742 
	C443.742950,607.348633 443.585693,607.178833 443.398071,607.037048 
	C443.290955,606.586121 443.183868,606.135132 442.945679,605.158447 
	C442.669067,604.405029 442.496155,604.200500 442.295868,604.019104 
	C442.227295,603.853149 442.158752,603.687134 442.018738,602.927246 
	C441.297211,601.557251 440.647156,600.781311 439.997070,600.005310 
	C439.997070,600.005310 440.000000,600.000000 439.872742,599.812744 
	C439.562073,599.383972 439.350464,599.170410 439.110626,598.984863 
	C439.110626,598.984863 439.023895,598.969666 438.993988,598.605408 
	C438.295807,597.500793 437.627533,596.760498 436.959259,596.020142 
	C436.959259,596.020142 436.992981,595.992371 436.958862,595.649109 
	C435.726288,593.585327 434.109558,592.011902 433.439362,590.105652 
	C432.666626,587.907776 431.730621,584.858032 432.665985,583.184326 
	C434.032257,580.739502 443.398529,580.284729 445.261780,582.421143 
	C450.245026,588.134827 455.889862,593.686707 456.856262,601.707642 
	C457.355560,605.851990 459.012817,608.544678 462.819824,610.009949 
	C462.819824,610.009949 462.975616,610.435364 463.058929,610.940491 
	C463.379517,611.959412 463.616791,612.473267 463.854065,612.987061 
	C464.234070,613.738037 464.614044,614.488953 465.116882,615.763184 
	C465.396515,616.542236 465.578064,616.778931 465.784485,616.996643 
	C465.784485,616.996643 465.946960,617.439575 466.097595,617.869019 
	C466.416595,618.549988 466.608093,618.782349 466.822723,618.995605 
	C466.887085,619.429993 466.951447,619.864380 466.897217,620.898132 
	C467.551910,623.312805 468.325134,625.128052 469.098358,626.943359 
	C469.098358,626.943359 469.030060,626.970825 469.086365,627.216614 
	C469.370026,627.972656 469.597351,628.482910 469.824677,628.993164 
	C469.824677,628.993164 469.972015,629.442139 470.024384,630.068970 
	C470.985809,633.132324 471.894867,635.568848 472.803925,638.005432 
z"/>
<path fill="#EF7C20" opacity="1.000000" stroke="none" 
	d="
M462.875610,609.634766 
	C459.012817,608.544678 457.355560,605.851990 456.856262,601.707642 
	C455.889862,593.686707 450.245026,588.134827 445.261780,582.421143 
	C443.398529,580.284729 434.032257,580.739502 432.665985,583.184326 
	C431.730621,584.858032 432.666626,587.907776 433.439362,590.105652 
	C434.109558,592.011902 435.726288,593.585327 436.953003,595.669922 
	C430.733246,591.799622 423.863495,591.625732 416.778778,592.982361 
	C403.123230,595.597046 389.318573,596.924438 375.480164,595.753418 
	C361.787994,594.594727 349.255768,585.038208 354.272522,566.862671 
	C354.970306,564.334656 355.575500,561.738159 356.646088,559.363953 
	C359.731049,552.522156 357.436432,546.421387 352.973938,541.698486 
	C349.054565,537.550476 347.806580,533.635498 349.717834,528.230103 
	C351.491943,526.942932 352.836609,525.437378 354.478119,524.966309 
	C356.043335,524.517273 357.918121,525.146790 359.656799,525.302185 
	C359.522400,526.755188 359.359833,528.206360 359.261292,529.661804 
	C359.156647,531.206726 358.852997,532.820923 359.213623,534.260132 
	C359.311493,534.650635 361.495667,534.518372 362.854401,534.346191 
	C364.875580,536.930237 366.808929,539.766052 368.644257,542.664062 
	C372.305817,548.445801 369.890259,554.547180 369.459473,560.527649 
	C369.203003,564.088379 367.906769,567.782715 368.514954,571.158081 
	C370.292297,581.021851 378.365326,585.830078 389.150665,583.963318 
	C403.857178,581.418030 418.545258,578.765198 433.234772,576.122681 
	C442.314240,574.489441 447.779144,577.350403 453.050812,587.531372 
	C456.704529,594.587585 459.662506,602.004028 462.875610,609.634766 
z"/>
<path fill="#F57519" opacity="1.000000" stroke="none" 
	d="
M366.306915,766.055847 
	C365.343964,765.892151 363.787323,765.774719 363.113586,764.942566 
	C357.978607,758.600281 353.330994,752.079773 353.856995,743.182129 
	C353.983337,741.044739 352.353180,738.803650 351.530853,736.610229 
	C349.391998,737.485901 346.831238,737.891846 345.212189,739.346069 
	C342.722717,741.582458 340.979950,744.629333 338.704956,747.137024 
	C337.974426,747.942322 336.496124,748.646484 335.475067,748.513428 
	C330.494141,747.864319 328.810547,751.124146 328.269775,754.893372 
	C327.762756,758.427429 328.024109,762.122131 328.373383,765.704590 
	C328.519287,767.200989 330.020691,768.520386 330.439453,770.048035 
	C330.838806,771.504944 330.631409,773.128235 330.390686,774.835083 
	C319.834351,753.712585 323.416992,733.669312 334.675842,713.821289 
	C339.735168,704.902344 344.199615,695.348877 346.957397,685.528259 
	C348.730499,679.214172 346.924377,671.888611 346.670898,665.018250 
	C346.629822,663.904846 346.319397,662.801331 346.133484,661.693237 
	C346.528900,661.335266 346.924316,660.977295 347.319733,660.619324 
	C350.833679,664.045105 354.550720,667.288696 357.820831,670.933289 
	C365.497009,679.488281 363.531433,689.892517 362.264832,699.739868 
	C360.719330,711.755371 357.755768,723.582275 355.963562,735.574158 
	C354.549286,745.037231 358.606995,753.266907 363.371735,761.125427 
	C364.304657,762.664185 365.206177,764.222046 366.306915,766.055847 
z"/>
<path fill="#EB731B" opacity="1.000000" stroke="none" 
	d="
M523.598572,573.445007 
	C529.441650,582.625854 535.231018,591.409912 540.679749,600.400452 
	C548.691711,613.620361 549.366089,627.359863 542.660217,641.320984 
	C540.780701,645.234131 538.469482,648.939941 535.658569,653.995789 
	C536.276123,648.493286 536.618103,644.395264 537.212280,640.334106 
	C539.746399,623.014404 533.247009,608.421204 523.575806,594.776794 
	C516.256714,584.450806 507.947815,574.686462 501.788208,563.712952 
	C493.563690,549.060669 494.305267,533.345703 500.745392,517.926392 
	C501.098450,517.081055 501.682922,516.332336 502.915802,514.279846 
	C502.242828,537.460938 510.618622,556.103516 523.598572,573.445007 
z"/>
<path fill="#EB731B" opacity="1.000000" stroke="none" 
	d="
M422.716309,715.175415 
	C430.401764,712.450989 436.100433,707.469421 441.569183,702.154175 
	C442.747192,701.009277 443.990143,699.926636 445.113312,698.730957 
	C447.162689,696.549377 448.805328,697.128784 450.454987,699.617188 
	C450.248688,700.476807 449.867767,701.080811 449.157806,701.609192 
	C448.658081,701.314026 448.487396,701.094543 448.316711,700.875061 
	C448.168518,701.021667 448.020355,701.168213 447.872192,701.314758 
	C448.224854,701.536011 448.577576,701.757324 448.930237,701.978577 
	C442.426666,711.628174 435.965271,721.306580 429.409180,730.920410 
	C420.721313,743.660156 411.957214,756.347961 403.232422,769.062622 
	C402.166809,770.615601 401.141693,772.196411 399.825806,773.591248 
	C403.239319,752.525146 412.087708,733.650513 422.716309,715.175415 
z"/>
<path fill="#F66C15" opacity="1.000000" stroke="none" 
	d="
M686.771912,868.095825 
	C688.117981,868.336792 689.488220,868.367371 690.224060,869.066040 
	C691.193604,869.986694 692.346436,871.560303 692.148193,872.613708 
	C691.969849,873.561401 690.148254,874.356506 688.910400,874.894043 
	C688.056335,875.265015 686.565796,874.695129 686.050354,875.221680 
	C684.590698,876.713074 683.486145,878.552063 682.241577,880.254028 
	C683.615295,880.982910 685.006470,881.681274 686.356567,882.451599 
	C687.235168,882.952881 688.054016,883.558960 688.957886,884.441650 
	C682.245972,887.761230 675.475769,890.757324 668.086853,893.903931 
	C666.993042,894.249451 666.518005,894.444458 666.042969,894.639526 
	C665.859314,894.714172 665.675598,894.788757 664.893738,894.882935 
	C663.528687,894.336914 662.761719,893.771240 661.994812,893.205566 
	C669.324341,885.988525 676.653870,878.771484 684.277405,871.130615 
	C684.739075,870.545044 684.881592,870.363464 684.999023,870.162170 
	C684.999023,870.162170 685.014465,869.976624 685.259094,869.855591 
	C685.696838,869.548035 685.864014,869.340637 686.005127,869.112244 
	C686.174683,868.802368 686.344238,868.492554 686.771912,868.095825 
z"/>
<path fill="#F66C15" opacity="1.000000" stroke="none" 
	d="
M244.168655,762.323242 
	C244.454025,761.943542 244.787125,761.841858 245.095749,761.891724 
	C247.254181,762.240234 249.407562,762.620056 251.562561,762.989868 
	C250.512619,764.798828 249.462692,766.607849 248.205597,768.687378 
	C246.733948,766.862366 245.469498,764.766846 244.168655,762.323242 
z"/>
<path fill="#EB731B" opacity="1.000000" stroke="none" 
	d="
M453.998016,686.998352 
	C454.002808,686.345154 453.859070,685.647095 454.040405,685.047302 
	C454.572540,683.287231 455.233887,681.566284 455.844604,679.830017 
	C457.337738,680.791016 458.830902,681.752014 460.616974,682.849731 
	C460.466400,683.914673 460.022919,684.842896 459.281189,685.888367 
	C457.559540,686.286987 456.136169,686.568359 454.356384,686.924927 
	C454.000000,687.000000 453.998016,686.998352 453.998016,686.998352 
z"/>
<path fill="#EB731B" opacity="1.000000" stroke="none" 
	d="
M662.648071,514.652466 
	C661.766479,514.796875 660.809753,514.582886 659.488647,514.318909 
	C658.310913,510.428802 657.497681,506.588684 656.684448,502.748596 
	C657.192261,502.609924 657.700073,502.471252 658.207825,502.332611 
	C659.662903,506.319763 661.117981,510.306915 662.648071,514.652466 
z"/>
<path fill="#EB731B" opacity="1.000000" stroke="none" 
	d="
M715.284424,705.768921 
	C714.240112,705.032654 713.494995,704.079956 712.418213,703.076477 
	C713.989502,700.086731 715.892456,697.147827 717.795410,694.208862 
	C718.132690,694.356506 718.470032,694.504150 718.807312,694.651794 
	C717.732788,698.285400 716.658203,701.919006 715.284424,705.768921 
z"/>
<path fill="#EB731B" opacity="1.000000" stroke="none" 
	d="
M661.646606,893.171997 
	C662.761719,893.771240 663.528687,894.336914 664.601440,894.937988 
	C662.166626,896.047180 659.425964,897.121033 656.685303,898.194824 
	C656.433899,897.713013 656.182495,897.231140 655.931091,896.749329 
	C657.720215,895.545715 659.509338,894.342102 661.646606,893.171997 
z"/>
<path fill="#F77A1C" opacity="1.000000" stroke="none" 
	d="
M284.754211,735.653320 
	C283.476227,733.302856 282.230865,730.589844 280.979919,727.474915 
	C282.245148,729.812256 283.515991,732.551453 284.754211,735.653320 
z"/>
<path fill="#EB731B" opacity="1.000000" stroke="none" 
	d="
M735.291016,125.269989 
	C735.389832,124.291924 735.674255,123.598831 736.001709,122.622604 
	C737.824829,123.574707 739.604919,124.809944 741.385071,126.045181 
	C741.234253,126.347923 741.083435,126.650665 740.932678,126.953407 
	C739.114014,126.487259 737.295349,126.021118 735.291016,125.269989 
z"/>
<path fill="#F57519" opacity="1.000000" stroke="none" 
	d="
M370.799652,772.666138 
	C367.160828,772.772461 366.595581,770.205078 366.583435,766.893677 
	C368.028564,768.450500 369.400726,770.389526 370.799652,772.666138 
z"/>
<path fill="#EF7C20" opacity="1.000000" stroke="none" 
	d="
M472.858398,637.620239 
	C471.894867,635.568848 470.985809,633.132324 470.053223,630.303467 
	C470.990784,632.352417 471.951813,634.793762 472.858398,637.620239 
z"/>
<path fill="#F67218" opacity="1.000000" stroke="none" 
	d="
M512.736328,821.216736 
	C512.566101,823.453674 512.086304,825.901245 511.451050,828.641357 
	C511.672607,826.431702 512.049683,823.929504 512.736328,821.216736 
z"/>
<path fill="#F97318" opacity="1.000000" stroke="none" 
	d="
M231.703491,703.328857 
	C231.991058,706.707886 231.995514,710.378723 231.997330,714.506470 
	C231.803253,711.182495 231.611801,707.401611 231.703491,703.328857 
z"/>
<path fill="#EF7C20" opacity="1.000000" stroke="none" 
	d="
M469.059082,626.573608 
	C468.325134,625.128052 467.551910,623.312805 466.939758,621.226074 
	C467.740479,622.704346 468.380127,624.454041 469.059082,626.573608 
z"/>
<path fill="#F97318" opacity="1.000000" stroke="none" 
	d="
M233.704727,689.322510 
	C233.628571,691.581787 233.260406,694.072510 232.594543,696.751953 
	C232.668793,694.478455 233.040756,692.016174 233.704727,689.322510 
z"/>
<path fill="#EB731B" opacity="1.000000" stroke="none" 
	d="
M232.211182,728.352356 
	C232.856934,730.030823 233.450317,732.085938 234.031860,734.545776 
	C233.399612,732.876709 232.779205,730.802856 232.211182,728.352356 
z"/>
<path fill="#F57519" opacity="1.000000" stroke="none" 
	d="
M330.224335,777.391479 
	C330.401031,778.249451 330.509186,779.505188 330.338440,780.888062 
	C330.091583,779.939941 330.123718,778.864624 330.224335,777.391479 
z"/>
<path fill="#F77A1C" opacity="1.000000" stroke="none" 
	d="
M280.927368,726.676392 
	C280.490448,726.184753 280.040161,725.353271 279.731934,724.281250 
	C280.220642,724.806030 280.567322,725.571289 280.927368,726.676392 
z"/>
<path fill="#EB731B" opacity="1.000000" stroke="none" 
	d="
M452.287933,696.832886 
	C452.463135,696.058533 452.925354,695.153259 453.687622,694.134399 
	C453.516785,694.914490 453.045868,695.808228 452.287933,696.832886 
z"/>
<path fill="#EB731B" opacity="1.000000" stroke="none" 
	d="
M461.265442,682.759766 
	C461.373322,682.005371 461.762085,681.128418 462.420563,680.119751 
	C462.308960,680.871094 461.927643,681.754150 461.265442,682.759766 
z"/>
<path fill="#EB731B" opacity="1.000000" stroke="none" 
	d="
M241.238266,756.290894 
	C241.846436,756.778931 242.406830,757.578979 242.982147,758.695007 
	C242.394882,758.208313 241.792694,757.405640 241.238266,756.290894 
z"/>
<path fill="#F66C15" opacity="1.000000" stroke="none" 
	d="
M305.654358,763.727905 
	C304.914093,763.595642 304.080475,763.170654 303.126282,762.476562 
	C303.857544,762.616638 304.709290,763.025818 305.654358,763.727905 
z"/>
<path fill="#EF7C20" opacity="1.000000" stroke="none" 
	d="
M440.047119,600.317017 
	C440.647156,600.781311 441.297211,601.557251 441.977783,602.661011 
	C441.371246,602.202087 440.734222,601.415405 440.047119,600.317017 
z"/>
<path fill="#EF7C20" opacity="1.000000" stroke="none" 
	d="
M437.045135,596.318970 
	C437.627533,596.760498 438.295807,597.500793 439.001953,598.562134 
	C438.403534,598.127930 437.767273,597.372803 437.045135,596.318970 
z"/>
<path fill="#F57519" opacity="1.000000" stroke="none" 
	d="
M328.840485,780.836548 
	C328.359711,780.972351 327.757507,780.829041 327.075073,780.473145 
	C327.569580,780.359558 328.144318,780.458435 328.840485,780.836548 
z"/>
<path fill="#EB731B" opacity="1.000000" stroke="none" 
	d="
M659.412231,515.600464 
	C659.768921,516.237366 659.881165,517.110657 660.003784,518.423035 
	C659.732056,517.853638 659.449951,516.845276 659.412231,515.600464 
z"/>
<path fill="#EF7C20" opacity="1.000000" stroke="none" 
	d="
M659.734375,360.622620 
	C659.450195,360.170013 659.233337,359.403046 659.011963,358.333221 
	C659.272278,358.789642 659.536987,359.548920 659.734375,360.622620 
z"/>
<path fill="#EF7C20" opacity="1.000000" stroke="none" 
	d="
M660.749634,366.616058 
	C660.453979,366.168121 660.232788,365.406250 660.004333,364.342529 
	C660.272766,364.794495 660.548462,365.548340 660.749634,366.616058 
z"/>
<path fill="#EB731B" opacity="1.000000" stroke="none" 
	d="
M666.320740,894.699951 
	C666.518005,894.444458 666.993042,894.249451 667.725464,894.023926 
	C667.521423,894.249023 667.059998,894.504700 666.320740,894.699951 
z"/>
<path fill="#EB731B" opacity="1.000000" stroke="none" 
	d="
M239.283951,751.306885 
	C239.561371,751.480713 239.773300,751.932129 240.017517,752.633179 
	C239.772705,752.450012 239.495590,752.017212 239.283951,751.306885 
z"/>
<path fill="#EB731B" opacity="1.000000" stroke="none" 
	d="
M237.325592,746.329651 
	C237.588593,746.507812 237.787750,746.951477 238.008209,747.640747 
	C237.773590,747.455933 237.517670,747.025574 237.325592,746.329651 
z"/>
<path fill="#EB731B" opacity="1.000000" stroke="none" 
	d="
M236.255051,743.296753 
	C236.540024,743.462952 236.759521,743.900269 237.010574,744.582153 
	C236.757950,744.407104 236.473770,743.987488 236.255051,743.296753 
z"/>
<path fill="#EB731B" opacity="1.000000" stroke="none" 
	d="
M240.132538,753.266541 
	C240.386795,753.451843 240.655273,753.928955 240.970428,754.679565 
	C240.727005,754.488159 240.436890,754.023254 240.132538,753.266541 
z"/>
<path fill="#EF7C20" opacity="1.000000" stroke="none" 
	d="
M463.919373,612.672852 
	C463.616791,612.473267 463.379517,611.959412 463.095459,611.164062 
	C463.360687,611.374573 463.672668,611.866638 463.919373,612.672852 
z"/>
<path fill="#EB731B" opacity="1.000000" stroke="none" 
	d="
M660.248657,521.327393 
	C660.517456,521.504089 660.726135,521.956726 660.973267,522.657410 
	C660.737366,522.471436 660.462952,522.037354 660.248657,521.327393 
z"/>
<path fill="#EB731B" opacity="1.000000" stroke="none" 
	d="
M234.210114,736.304626 
	C234.496368,736.494202 234.717941,736.975525 234.973022,737.722290 
	C234.719498,737.523987 234.432465,737.060181 234.210114,736.304626 
z"/>
<path fill="#EF7C20" opacity="1.000000" stroke="none" 
	d="
M469.891571,628.683533 
	C469.597351,628.482910 469.370026,627.972656 469.102417,627.183472 
	C469.360870,627.394348 469.659668,627.884094 469.891571,628.683533 
z"/>
<path fill="#EB731B" opacity="1.000000" stroke="none" 
	d="
M661.269653,524.338989 
	C661.526245,524.539856 661.725037,525.016968 661.956543,525.752991 
	C661.730042,525.546326 661.470886,525.080750 661.269653,524.338989 
z"/>
<path fill="#F36312" opacity="1.000000" stroke="none" 
	d="
M223.293945,795.260620 
	C223.494263,795.187378 223.660583,795.347168 223.900269,795.673767 
	C223.678177,795.866028 223.440277,795.750427 223.293945,795.260620 
z"/>
<path fill="#F66C15" opacity="1.000000" stroke="none" 
	d="
M382.627045,789.727661 
	C382.429718,789.805908 382.298767,789.681274 382.120483,789.415222 
	C382.330048,789.199646 382.536804,789.283325 382.627045,789.727661 
z"/>
<path fill="#EF7C20" opacity="1.000000" stroke="none" 
	d="
M439.144958,599.231934 
	C439.350464,599.170410 439.562073,599.383972 439.870148,599.814209 
	C439.636536,599.962830 439.364685,599.788147 439.144958,599.231934 
z"/>
<path fill="#F66C15" opacity="1.000000" stroke="none" 
	d="
M323.733185,777.756592 
	C323.567993,777.831848 323.398041,777.691040 323.146423,777.396118 
	C323.338104,777.205505 323.559357,777.304993 323.733185,777.756592 
z"/>
<path fill="#EF7C20" opacity="1.000000" stroke="none" 
	d="
M442.270844,604.252319 
	C442.496155,604.200500 442.669067,604.405029 442.909607,604.810242 
	C442.667969,604.946716 442.415070,604.779297 442.270844,604.252319 
z"/>
<path fill="#F66C15" opacity="1.000000" stroke="none" 
	d="
M319.826477,774.805969 
	C319.661072,774.912598 319.472534,774.785645 319.189270,774.502380 
	C319.386597,774.213806 319.622833,774.289246 319.826477,774.805969 
z"/>
<path fill="#EF7C20" opacity="1.000000" stroke="none" 
	d="
M638.386047,375.251526 
	C638.572571,375.180389 638.721802,375.322418 638.927734,375.621246 
	C638.724365,375.795135 638.512512,375.690674 638.386047,375.251526 
z"/>
<path fill="#F67218" opacity="1.000000" stroke="none" 
	d="
M571.579590,817.721375 
	C571.399414,817.743164 571.269104,817.559265 571.068237,817.219055 
	C571.266846,817.123047 571.477417,817.274048 571.579590,817.721375 
z"/>
<path fill="#F67218" opacity="1.000000" stroke="none" 
	d="
M572.673462,819.744141 
	C572.484314,819.794861 572.330017,819.624939 572.084229,819.307007 
	C572.300171,819.133423 572.538696,819.254944 572.673462,819.744141 
z"/>
<path fill="#EF7C20" opacity="1.000000" stroke="none" 
	d="
M661.578613,368.731506 
	C661.379150,368.792389 661.241150,368.643280 661.059448,368.334259 
	C661.271667,368.180328 661.479736,368.296051 661.578613,368.731506 
z"/>
<path fill="#EF7C20" opacity="1.000000" stroke="none" 
	d="
M628.382080,363.260284 
	C628.563965,363.193665 628.710144,363.335571 628.913696,363.630249 
	C628.714233,363.797028 628.505981,363.692261 628.382080,363.260284 
z"/>
<path fill="#F36312" opacity="1.000000" stroke="none" 
	d="
M685.796814,869.180176 
	C685.864014,869.340637 685.696838,869.548035 685.351929,869.863037 
	C685.182678,869.667053 685.312134,869.419250 685.796814,869.180176 
z"/>
<path fill="#F36312" opacity="1.000000" stroke="none" 
	d="
M684.785889,870.184448 
	C684.881592,870.363464 684.739075,870.545044 684.439209,870.819275 
	C684.161499,870.604187 684.250061,870.362549 684.785889,870.184448 
z"/>
<path fill="#EB731B" opacity="1.000000" stroke="none" 
	d="
M734.851807,121.742722 
	C734.666443,121.859573 734.453613,121.719597 734.155762,121.380478 
	C734.367676,121.140160 734.618835,121.241676 734.851807,121.742722 
z"/>
<path fill="#EB731B" opacity="1.000000" stroke="none" 
	d="
M733.718140,120.801628 
	C733.535950,120.927673 733.388733,120.833031 733.215088,120.569443 
	C733.412964,120.297142 733.601135,120.357285 733.718140,120.801628 
z"/>
<path fill="#EF7C20" opacity="1.000000" stroke="none" 
	d="
M465.815857,616.740601 
	C465.578064,616.778931 465.396515,616.542236 465.137512,616.087158 
	C465.305908,616.086792 465.576569,616.285706 465.815857,616.740601 
z"/>
<path fill="#EB731B" opacity="1.000000" stroke="none" 
	d="
M458.177063,687.836853 
	C458.040314,687.673279 458.145111,687.468201 458.437408,687.179688 
	C458.714355,687.364441 458.645599,687.597473 458.177063,687.836853 
z"/>
<path fill="#EB731B" opacity="1.000000" stroke="none" 
	d="
M464.180237,677.835449 
	C464.041412,677.659546 464.155090,677.454041 464.457367,677.164856 
	C464.756531,677.363037 464.685455,677.604553 464.180237,677.835449 
z"/>
<path fill="#EB731B" opacity="1.000000" stroke="none" 
	d="
M711.791565,703.179565 
	C711.877808,703.359131 711.711548,703.574280 711.350220,703.889160 
	C711.158020,703.678772 711.286011,703.420776 711.791565,703.179565 
z"/>
<path fill="#EB731B" opacity="1.000000" stroke="none" 
	d="
M710.839111,704.230652 
	C710.949951,704.402100 710.827515,704.586060 710.539124,704.851379 
	C710.275391,704.655640 710.353027,704.425720 710.839111,704.230652 
z"/>
<path fill="#EB731B" opacity="1.000000" stroke="none" 
	d="
M426.758148,708.049805 
	C426.854767,708.224487 426.686768,708.475281 426.296967,708.839172 
	C426.102570,708.628113 426.242004,708.352600 426.758148,708.049805 
z"/>
<path fill="#EB731B" opacity="1.000000" stroke="none" 
	d="
M425.796448,709.161011 
	C425.931183,709.347839 425.806488,709.551636 425.493286,709.839294 
	C425.188477,709.628540 425.265869,709.380188 425.796448,709.161011 
z"/>
<path fill="#EB731B" opacity="1.000000" stroke="none" 
	d="
M423.775024,713.120300 
	C423.908966,713.296448 423.785522,713.510986 423.472473,713.820190 
	C423.172607,713.617249 423.250854,713.365173 423.775024,713.120300 
z"/>
<path fill="#EB731B" opacity="1.000000" stroke="none" 
	d="
M465.195068,675.859985 
	C465.057770,675.678162 465.181305,675.465393 465.497040,675.162598 
	C465.803467,675.370483 465.725677,675.622681 465.195068,675.859985 
z"/>
<path fill="#EB731B" opacity="1.000000" stroke="none" 
	d="
M466.207214,673.835327 
	C466.078735,673.649841 466.207672,673.445251 466.530151,673.159485 
	C466.808105,673.370483 466.721771,673.616516 466.207214,673.835327 
z"/>
<path fill="#EF7C20" opacity="1.000000" stroke="none" 
	d="
M466.844971,618.735046 
	C466.608093,618.782349 466.416595,618.549988 466.137024,618.101685 
	C466.306274,618.094666 466.586731,618.284546 466.844971,618.735046 
z"/>
<path fill="#F66C15" opacity="1.000000" stroke="none" 
	d="
M317.792023,773.805664 
	C317.643890,773.902954 317.478333,773.792358 317.232513,773.542725 
	C317.409790,773.277405 317.617249,773.342102 317.792023,773.805664 
z"/>
<path fill="#EB731B" opacity="1.000000" stroke="none" 
	d="
M235.413544,741.244446 
	C235.648041,741.167053 235.800125,741.328186 235.968719,741.686890 
	C235.728210,741.844177 235.510178,741.710388 235.413544,741.244446 
z"/>
<path fill="#EB731B" opacity="1.000000" stroke="none" 
	d="
M238.360565,749.237183 
	C238.591293,749.155457 238.758667,749.324280 238.956329,749.698975 
	C238.716492,749.860229 238.486679,749.721191 238.360565,749.237183 
z"/>
<path fill="#F66C15" opacity="1.000000" stroke="none" 
	d="
M243.389709,761.277954 
	C243.598053,761.216187 243.743225,761.374023 243.938080,761.698120 
	C243.718307,761.854431 243.497894,761.732117 243.389709,761.277954 
z"/>
<path fill="#EF7C20" opacity="1.000000" stroke="none" 
	d="
M444.391052,609.254395 
	C444.600952,609.216125 444.750549,609.413391 444.935822,609.809937 
	C444.721100,609.898193 444.507507,609.725098 444.391052,609.254395 
z"/>
<path fill="#EF7C20" opacity="1.000000" stroke="none" 
	d="
M443.366272,607.245117 
	C443.585693,607.178833 443.742950,607.348633 443.950500,607.701050 
	C443.716339,607.864319 443.484161,607.730225 443.366272,607.245117 
z"/>
<path fill="#EB731B" opacity="1.000000" stroke="none" 
	d="
M455.203979,692.834839 
	C455.067413,692.655396 455.184235,692.452698 455.488464,692.167725 
	C455.786102,692.368896 455.713257,692.610962 455.203979,692.834839 
z"/>
<path fill="#F66C15" opacity="1.000000" stroke="none" 
	d="
M311.822327,769.744019 
	C311.636566,769.811890 311.438751,769.630554 311.146423,769.260376 
	C311.361877,769.093323 311.614655,769.234436 311.822327,769.744019 
z"/>
<path fill="#F66C15" opacity="1.000000" stroke="none" 
	d="
M312.852783,770.764526 
	C312.693420,770.832642 312.484497,770.666626 312.169678,770.320312 
	C312.365082,770.152161 312.611572,770.282288 312.852783,770.764526 
z"/>
<path fill="#F66C15" opacity="1.000000" stroke="none" 
	d="
M314.666199,771.744385 
	C314.490753,771.833496 314.358887,771.725159 314.179138,771.480591 
	C314.367401,771.250793 314.560242,771.318298 314.666199,771.744385 
z"/>
<path fill="#F67218" opacity="1.000000" stroke="none" 
	d="
M545.248901,802.835327 
	C545.479614,804.459717 545.405884,805.919617 545.332214,807.379578 
	C544.332031,806.846191 543.331848,806.312805 542.331604,805.779480 
	C543.202515,804.743286 544.073425,803.707092 545.248901,802.835327 
z"/>
<path fill="#F67218" opacity="1.000000" stroke="none" 
	d="
M537.873657,798.951172 
	C538.924927,798.723633 539.803162,798.755310 540.681396,798.786987 
	C540.149963,799.679688 539.618530,800.572327 539.087097,801.465027 
	C538.624939,800.713501 538.162720,799.961914 537.873657,798.951172 
z"/>
<path fill="#F67218" opacity="1.000000" stroke="none" 
	d="
M531.973145,799.334106 
	C531.527893,799.263123 531.210876,799.054199 530.893799,798.845215 
	C530.996826,798.732056 531.171997,798.508911 531.192017,798.522095 
	C531.506958,798.728882 531.801880,798.966003 531.973145,799.334106 
z"/>
<path fill="#F66C15" opacity="1.000000" stroke="none" 
	d="
M422.026245,871.950684 
	C419.647827,872.249207 417.360992,872.249207 415.074127,872.249207 
	C415.111389,871.541016 415.148651,870.832886 415.185913,870.124695 
	C417.593018,869.125366 419.939911,869.067871 422.026245,871.950684 
z"/>
<path fill="#EB731B" opacity="1.000000" stroke="none" 
	d="
M454.000885,687.001221 
	C453.783844,687.361511 453.576538,687.728149 453.335114,688.070679 
	C453.303467,688.115540 453.097076,688.037170 452.971619,688.015930 
	C453.181519,687.719727 453.391449,687.423523 453.799683,687.062866 
	C453.998016,686.998352 454.000000,687.000000 454.000885,687.001221 
z"/>
<path fill="#F77A1C" opacity="1.000000" stroke="none" 
	d="
M448.963074,701.978699 
	C448.577576,701.757324 448.224854,701.536011 447.872192,701.314758 
	C448.020355,701.168213 448.168518,701.021667 448.316711,700.875061 
	C448.487396,701.094543 448.658081,701.314026 448.901001,701.725403 
	C448.973236,701.917236 448.995911,701.978821 448.963074,701.978699 
z"/>
</svg>